<svg width="5" height="9" viewBox="0 0 5 9" fill="none" xmlns="http://www.w3.org/2000/svg">
<path d="M1.3113e-06 8.35626C-0.000324369 8.20612 0.0577382 8.06061 0.164111 7.945L3.36069 4.50063L0.278275 1.04984C0.219006 0.984111 0.174745 0.908478 0.148036 0.827292C0.121328 0.746106 0.112699 0.660966 0.122645 0.576767C0.132591 0.492567 0.160915 0.410968 0.205991 0.336659C0.251067 0.262351 0.312005 0.196797 0.385303 0.143768C0.458288 0.0903892 0.542267 0.0505276 0.632412 0.0264737C0.722558 0.00241991 0.817094 -0.00535165 0.910586 0.00360575C1.00408 0.0125632 1.09468 0.0380728 1.17719 0.0786687C1.2597 0.119265 1.33249 0.174146 1.39137 0.240159L4.83768 4.09579C4.94263 4.21077 5 4.355 5 4.50384C5 4.65269 4.94263 4.79692 4.83768 4.9119L1.27007 8.76753C1.21017 8.8326 1.13661 8.88639 1.05359 8.92581C0.970574 8.96524 0.879737 8.98953 0.786283 8.99729C0.692828 9.00505 0.598591 8.99613 0.50897 8.97104C0.419349 8.94594 0.336105 8.90518 0.264005 8.85107C0.182154 8.79127 0.116029 8.71589 0.0703815 8.63033C0.0247339 8.54478 0.000698447 8.45118 1.3113e-06 8.35626Z" fill="#8C8FA5"/>
</svg>
