<svg width="6" height="6" viewBox="0 0 6 6" fill="none" xmlns="http://www.w3.org/2000/svg">
<path fill-rule="evenodd" clip-rule="evenodd" d="M0.300443 2.40021C0.379995 2.40021 0.45629 2.43181 0.512542 2.48806C0.568795 2.54431 0.600397 2.62061 0.600397 2.70016V5.39975H3.29999C3.37954 5.39975 3.45583 5.43135 3.51209 5.4876C3.56834 5.54386 3.59994 5.62015 3.59994 5.6997C3.59994 5.77926 3.56834 5.85555 3.51209 5.9118C3.45583 5.96806 3.37954 5.99966 3.29999 5.99966H0.300443C0.22089 5.99966 0.144595 5.96806 0.0883429 5.9118C0.0320906 5.85555 0.000488281 5.77926 0.000488281 5.6997V2.70016C0.000488281 2.62061 0.0320906 2.54431 0.0883429 2.48806C0.144595 2.43181 0.22089 2.40021 0.300443 2.40021Z" fill="#8C8FA5"/>
<path fill-rule="evenodd" clip-rule="evenodd" d="M5.91188 0.0881228C5.93981 0.115986 5.96197 0.149086 5.97709 0.185528C5.99222 0.221969 6 0.261036 6 0.30049C6 0.339945 5.99222 0.379012 5.97709 0.415453C5.96197 0.451895 5.93981 0.484995 5.91188 0.512858L0.512701 5.91203C0.456377 5.96836 0.379986 6 0.300333 6C0.22068 6 0.144289 5.96836 0.0879655 5.91203C0.0316421 5.85571 1.8767e-09 5.77932 0 5.69967C-1.8767e-09 5.62001 0.0316421 5.54362 0.0879655 5.4873L5.48714 0.0881228C5.51501 0.0601891 5.54811 0.0380269 5.58455 0.0229053C5.62099 0.00778373 5.66006 0 5.69951 0C5.73896 0 5.77803 0.00778373 5.81447 0.0229053C5.85091 0.0380269 5.88401 0.0601891 5.91188 0.0881228Z" fill="#8C8FA5"/>
</svg>
