<svg width="368" height="265" viewBox="0 0 368 265" fill="none" xmlns="http://www.w3.org/2000/svg">
<path opacity="0.1" d="M213.663 46.7289C190.088 45.9096 167.617 38.2983 146.192 29.9727C124.766 21.6471 103.531 12.4208 80.5074 8.00914C65.7048 5.16847 48.7759 4.76895 36.8512 12.7052C25.3734 20.3401 21.666 33.521 19.6717 45.7504C18.1718 54.953 17.3017 64.6363 21.4019 73.2531C24.2561 79.2324 29.3212 84.2603 32.8255 89.989C45.0143 109.921 36.3975 134.502 23.1862 153.98C16.9902 163.122 9.80219 171.82 5.02147 181.541C0.240747 191.261 -1.97355 202.397 2.21127 212.31C6.35885 222.129 16.2386 229.517 26.9444 234.707C48.6879 245.241 74.3081 248.254 99.2917 249.981C154.595 253.763 210.196 252.124 265.645 250.485C286.166 249.876 306.779 249.263 326.965 246.084C338.175 244.32 349.751 241.523 357.891 234.772C368.221 226.199 370.784 211.688 363.86 200.938C352.247 182.912 320.139 178.432 312.02 159.086C307.554 148.438 312.142 136.574 318.636 126.698C332.562 105.513 355.91 86.9249 357.139 62.7064C357.986 46.0721 346.762 29.4174 329.406 21.5455C311.218 13.2876 285.994 14.3304 272.576 27.9785C258.759 42.0396 234.476 47.4501 213.663 46.7289Z" fill="#6C63FF"/>
<path d="M82.0208 245.478C82.0208 245.478 63.399 231.4 59.8812 213.492C58.4546 205.971 54.6281 199.115 48.9756 193.953C46.2715 191.524 43.351 189.348 40.2504 187.452" stroke="#535461" stroke-width="2" stroke-miterlimit="10"/>
<path d="M37.9718 176.171C39.6038 178.378 40.3419 187.733 40.3419 187.733C40.3419 187.733 31.6167 184.296 29.9814 182.092C29.1961 181.033 28.8639 179.705 29.0579 178.4C29.2519 177.096 29.9561 175.922 31.0157 175.136C32.0753 174.351 33.4035 174.019 34.708 174.213C36.0125 174.407 37.1865 175.111 37.9718 176.171Z" fill="#6C63FF"/>
<path d="M53.6209 183.511C53.7902 186.25 49.3312 194.505 49.3312 194.505C49.3312 194.505 43.8699 186.873 43.6972 184.134C43.6316 182.828 44.0831 181.549 44.9539 180.574C45.8248 179.599 47.0449 179.006 48.3498 178.924C49.6547 178.842 50.9393 179.277 51.9253 180.136C52.9114 180.995 53.5194 182.207 53.6176 183.511H53.6209Z" fill="#6C63FF"/>
<path d="M68.7892 204.611C67.5568 207.063 59.5359 211.938 59.5359 211.938C59.5359 211.938 58.6793 202.593 59.9117 200.142C60.5184 198.989 61.5534 198.121 62.7939 197.723C64.0345 197.326 65.3815 197.432 66.545 198.017C67.7086 198.603 68.5957 199.622 69.0154 200.856C69.4351 202.089 69.3538 203.437 68.7892 204.611Z" fill="#6C63FF"/>
<path d="M76.6747 223.152C75.8723 225.776 68.7926 231.934 68.7926 231.934C68.7926 231.934 66.365 222.871 67.1674 220.243C67.5531 218.983 68.4238 217.927 69.588 217.308C70.7522 216.689 72.1145 216.558 73.3753 216.944C74.636 217.33 75.6919 218.2 76.3107 219.364C76.9294 220.529 77.0604 221.891 76.6747 223.152Z" fill="#6C63FF"/>
<path d="M41.2595 201.141C43.9681 201.507 52.5307 197.64 52.5307 197.64C52.5307 197.64 45.3055 191.654 42.5833 191.288C41.2768 191.113 39.954 191.463 38.906 192.263C37.858 193.063 37.1706 194.246 36.9951 195.553C36.8195 196.859 37.1702 198.182 37.9699 199.23C38.7697 200.278 39.9529 200.965 41.2595 201.141Z" fill="#6C63FF"/>
<path d="M50.7566 222.712C53.4652 222.248 60.4636 216.001 60.4636 216.001C60.4636 216.001 51.7757 212.453 49.0705 212.917C48.4228 213.023 47.8025 213.256 47.2455 213.603C46.6885 213.95 46.2058 214.404 45.8252 214.939C45.4446 215.474 45.1736 216.079 45.028 216.719C44.8824 217.359 44.865 218.021 44.9768 218.668C45.0885 219.315 45.3273 219.933 45.6793 220.487C46.0313 221.041 46.4895 221.52 47.0275 221.896C47.5654 222.272 48.1726 222.537 48.8138 222.677C49.455 222.817 50.1176 222.829 50.7634 222.712H50.7566Z" fill="#6C63FF"/>
<path d="M62.8607 242.414C65.6066 242.414 73.5632 237.44 73.5632 237.44C73.5632 237.44 65.6032 232.473 62.8573 232.473C61.5391 232.473 60.2749 232.997 59.3428 233.929C58.4107 234.861 57.887 236.125 57.887 237.443C57.887 238.761 58.4107 240.026 59.3428 240.958C60.2749 241.89 61.5391 242.414 62.8573 242.414H62.8607Z" fill="#6C63FF"/>
<path d="M262.923 123.715C262.923 123.715 274.401 103.383 291.702 97.5258C298.967 95.1131 305.254 90.4098 309.62 84.1215C311.667 81.1152 313.434 77.927 314.898 74.5973" stroke="#535461" stroke-width="2" stroke-miterlimit="10"/>
<path d="M325.76 70.8729C323.789 72.7825 314.617 74.7598 314.617 74.7598C314.617 74.7598 316.869 65.652 318.839 63.7391C319.79 62.8486 321.053 62.3671 322.356 62.3985C323.658 62.4298 324.896 62.9714 325.804 63.9065C326.711 64.8417 327.215 66.0958 327.206 67.3987C327.198 68.7016 326.679 69.9492 325.76 70.8729Z" fill="#6C63FF"/>
<path d="M320.573 87.338C317.864 87.873 309.105 84.5481 309.105 84.5481C309.105 84.5481 315.944 78.1151 318.636 77.5903C319.282 77.4469 319.951 77.434 320.602 77.5525C321.253 77.6709 321.875 77.9183 322.429 78.2801C322.983 78.6418 323.46 79.1107 323.831 79.6592C324.202 80.2077 324.459 80.8247 324.588 81.474C324.717 82.1234 324.715 82.7919 324.582 83.4405C324.449 84.089 324.188 84.7045 323.814 85.2507C323.44 85.797 322.961 86.263 322.404 86.6214C321.847 86.9798 321.225 87.2235 320.573 87.338Z" fill="#6C63FF"/>
<path d="M301.694 105.174C299.1 104.277 293.206 96.9773 293.206 96.9773C293.206 96.9773 302.347 94.8849 304.947 95.7821C305.572 95.9893 306.149 96.3186 306.646 96.7508C307.142 97.183 307.548 97.7095 307.839 98.2997C308.131 98.89 308.302 99.5322 308.343 100.189C308.384 100.846 308.294 101.505 308.079 102.127C307.863 102.749 307.527 103.322 307.088 103.812C306.649 104.303 306.117 104.702 305.523 104.985C304.929 105.269 304.285 105.431 303.627 105.464C302.97 105.496 302.313 105.398 301.694 105.174Z" fill="#6C63FF"/>
<path d="M284.345 115.454C281.636 115.007 274.607 108.794 274.607 108.794C274.607 108.794 283.272 105.184 285.977 105.631C287.279 105.846 288.443 106.568 289.212 107.64C289.981 108.712 290.293 110.046 290.079 111.348C289.865 112.65 289.142 113.814 288.07 114.583C286.998 115.352 285.664 115.664 284.362 115.45L284.345 115.454Z" fill="#6C63FF"/>
<path d="M301.457 77.4278C301.453 80.1737 306.434 88.1404 306.434 88.1404C306.434 88.1404 311.407 80.1838 311.407 77.4413C311.425 76.7779 311.309 76.1178 311.067 75.4998C310.825 74.8819 310.462 74.3186 309.999 73.8433C309.536 73.3679 308.982 72.9901 308.371 72.7322C307.759 72.4742 307.102 72.3413 306.439 72.3413C305.775 72.3413 305.118 72.4742 304.507 72.7322C303.895 72.9901 303.342 73.3679 302.879 73.8433C302.416 74.3186 302.052 74.8819 301.81 75.4998C301.569 76.1178 301.453 76.7779 301.47 77.4413L301.457 77.4278Z" fill="#6C63FF"/>
<path d="M281.335 89.7046C282.154 92.3252 289.278 98.4365 289.278 98.4365C289.278 98.4365 291.648 89.3558 290.822 86.7352C290.393 85.5211 289.511 84.5206 288.359 83.9443C287.208 83.3681 285.878 83.2611 284.649 83.646C283.421 84.0308 282.389 84.8774 281.772 86.0075C281.155 87.1376 281.001 88.463 281.342 89.7046H281.335Z" fill="#6C63FF"/>
<path d="M263.434 104.321C263.8 107.03 269.786 114.265 269.786 114.265C269.786 114.265 273.649 105.716 273.284 102.997C273.211 102.338 273.007 101.701 272.685 101.122C272.362 100.543 271.927 100.034 271.405 99.6262C270.883 99.2179 270.285 98.9181 269.645 98.7445C269.006 98.5709 268.338 98.5269 267.681 98.6152C267.024 98.7035 266.392 98.9223 265.821 99.2586C265.25 99.5949 264.752 100.042 264.356 100.574C263.96 101.105 263.675 101.711 263.517 102.354C263.358 102.998 263.33 103.667 263.434 104.321Z" fill="#6C63FF"/>
<path opacity="0.25" d="M325.76 70.8729C323.789 72.7825 314.617 74.7598 314.617 74.7598C314.617 74.7598 316.869 65.652 318.839 63.7391C319.79 62.8486 321.053 62.3671 322.356 62.3985C323.658 62.4298 324.896 62.9714 325.804 63.9065C326.711 64.8417 327.215 66.0958 327.206 67.3987C327.198 68.7016 326.679 69.9492 325.76 70.8729Z" fill="black"/>
<path opacity="0.25" d="M320.573 87.338C317.864 87.873 309.105 84.5481 309.105 84.5481C309.105 84.5481 315.944 78.1151 318.636 77.5903C319.282 77.4469 319.951 77.434 320.602 77.5525C321.253 77.6709 321.875 77.9183 322.429 78.2801C322.983 78.6418 323.46 79.1107 323.831 79.6592C324.202 80.2077 324.459 80.8247 324.588 81.474C324.717 82.1234 324.715 82.7919 324.582 83.4405C324.449 84.089 324.188 84.7045 323.814 85.2507C323.44 85.797 322.961 86.263 322.404 86.6214C321.847 86.9798 321.225 87.2235 320.573 87.338Z" fill="black"/>
<path opacity="0.25" d="M301.694 105.174C299.1 104.277 293.206 96.9773 293.206 96.9773C293.206 96.9773 302.347 94.8849 304.947 95.7821C305.572 95.9893 306.149 96.3186 306.646 96.7508C307.142 97.183 307.548 97.7095 307.839 98.2997C308.131 98.89 308.302 99.5322 308.343 100.189C308.384 100.846 308.294 101.505 308.079 102.127C307.863 102.749 307.527 103.322 307.088 103.812C306.649 104.303 306.117 104.702 305.523 104.985C304.929 105.269 304.285 105.431 303.627 105.464C302.97 105.496 302.313 105.398 301.694 105.174Z" fill="black"/>
<path opacity="0.25" d="M284.345 115.454C281.636 115.007 274.607 108.794 274.607 108.794C274.607 108.794 283.272 105.184 285.977 105.631C287.279 105.846 288.443 106.568 289.212 107.64C289.981 108.712 290.293 110.046 290.079 111.348C289.865 112.65 289.142 113.814 288.07 114.583C286.998 115.352 285.664 115.664 284.362 115.45L284.345 115.454Z" fill="black"/>
<path opacity="0.25" d="M301.457 77.4278C301.453 80.1737 306.434 88.1404 306.434 88.1404C306.434 88.1404 311.407 80.1838 311.407 77.4413C311.425 76.7779 311.309 76.1178 311.067 75.4998C310.825 74.8819 310.462 74.3186 309.999 73.8433C309.536 73.3679 308.982 72.9901 308.371 72.7322C307.759 72.4742 307.102 72.3413 306.439 72.3413C305.775 72.3413 305.118 72.4742 304.507 72.7322C303.895 72.9901 303.342 73.3679 302.879 73.8433C302.416 74.3186 302.052 74.8819 301.81 75.4998C301.569 76.1178 301.453 76.7779 301.47 77.4413L301.457 77.4278Z" fill="black"/>
<path opacity="0.25" d="M281.335 89.7046C282.154 92.3252 289.278 98.4365 289.278 98.4365C289.278 98.4365 291.648 89.3558 290.822 86.7352C290.393 85.5211 289.511 84.5206 288.359 83.9443C287.208 83.3681 285.878 83.2611 284.649 83.646C283.421 84.0308 282.389 84.8774 281.772 86.0075C281.155 87.1376 281.001 88.463 281.342 89.7046H281.335Z" fill="black"/>
<path opacity="0.25" d="M263.434 104.321C263.8 107.03 269.786 114.265 269.786 114.265C269.786 114.265 273.649 105.716 273.284 102.997C273.211 102.338 273.007 101.701 272.685 101.122C272.362 100.543 271.927 100.034 271.405 99.6262C270.883 99.2179 270.285 98.9181 269.645 98.7445C269.006 98.5709 268.338 98.5269 267.681 98.6152C267.024 98.7035 266.392 98.9223 265.821 99.2586C265.25 99.5949 264.752 100.042 264.356 100.574C263.96 101.105 263.675 101.711 263.517 102.354C263.358 102.998 263.33 103.667 263.434 104.321Z" fill="black"/>
<path d="M263.583 123.312C263.583 123.312 265.838 100.072 279.266 87.7138C284.93 82.5634 288.772 75.7161 290.216 68.1981C290.873 64.6242 291.201 60.9975 291.194 57.3636" stroke="#535461" stroke-width="2" stroke-miterlimit="10"/>
<path d="M299.611 49.5222C298.596 52.0683 290.998 57.5939 290.998 57.5939C290.998 57.5939 289.366 48.3541 290.392 45.808C290.886 44.5854 291.845 43.6091 293.059 43.0938C294.273 42.5785 295.641 42.5665 296.864 43.0604C298.086 43.5543 299.063 44.5136 299.578 45.7273C300.093 46.941 300.105 48.3097 299.611 49.5323V49.5222Z" fill="#6C63FF"/>
<path d="M301.545 66.6948C299.3 68.2726 289.931 68.7906 289.931 68.7906C289.931 68.7906 293.581 60.1434 295.826 58.5656C296.358 58.1671 296.965 57.8796 297.611 57.7199C298.256 57.5603 298.927 57.5318 299.584 57.6361C300.241 57.7404 300.87 57.9754 301.434 58.3272C301.998 58.6791 302.486 59.1405 302.869 59.6843C303.252 60.2281 303.521 60.8432 303.662 61.4931C303.803 62.1429 303.812 62.8145 303.688 63.4679C303.565 64.1212 303.311 64.7432 302.943 65.2969C302.575 65.8506 302.099 66.3248 301.545 66.6915V66.6948Z" fill="#6C63FF"/>
<path d="M291.502 90.6594C288.767 90.8897 280.417 86.5965 280.417 86.5965C280.417 86.5965 287.934 80.9761 290.67 80.7459C291.983 80.6354 293.287 81.0514 294.294 81.9022C295.301 82.7531 295.929 83.9691 296.039 85.2828C296.15 86.5965 295.734 87.9003 294.883 88.9074C294.032 89.9144 292.816 90.5422 291.502 90.6527V90.6594Z" fill="#6C63FF"/>
<path d="M279.818 107.077C277.16 107.754 268.208 104.954 268.208 104.954C268.208 104.954 274.665 98.1454 277.323 97.4547C278.599 97.1238 279.954 97.3133 281.09 97.9816C282.226 98.6499 283.051 99.7422 283.382 101.018C283.713 102.294 283.523 103.649 282.855 104.786C282.186 105.922 281.094 106.746 279.818 107.077Z" fill="#6C63FF"/>
<path d="M280.055 65.3811C281.166 67.89 288.933 73.1684 288.933 73.1684C288.933 73.1684 290.253 63.8778 289.143 61.369C288.589 60.1952 287.599 59.2844 286.383 58.8311C285.167 58.3779 283.822 58.4182 282.635 58.9434C281.448 59.4687 280.514 60.4372 280.032 61.642C279.55 62.8469 279.558 64.1925 280.055 65.3913V65.3811Z" fill="#6C63FF"/>
<path d="M266.634 84.7546C268.445 86.8165 277.431 89.5184 277.431 89.5184C277.431 89.5184 275.914 80.2583 274.103 78.1963C273.675 77.6954 273.153 77.2845 272.565 76.9874C271.977 76.6903 271.336 76.5129 270.679 76.4656C270.022 76.4184 269.363 76.5021 268.738 76.712C268.114 76.9219 267.538 77.2537 267.043 77.6883C266.548 78.1228 266.145 78.6513 265.856 79.2432C265.567 79.835 265.399 80.4784 265.36 81.1358C265.322 81.7933 265.415 82.4518 265.634 83.073C265.853 83.6943 266.192 84.2658 266.634 84.7546Z" fill="#6C63FF"/>
<path d="M256.175 105.381C257.611 107.717 266.011 111.898 266.011 111.898C266.011 111.898 266.082 102.516 264.657 100.177C263.947 99.0966 262.845 98.3352 261.583 98.0542C260.322 97.7731 259 97.9946 257.899 98.6715C256.798 99.3484 256.004 100.428 255.685 101.68C255.367 102.933 255.549 104.26 256.192 105.381H256.175Z" fill="#6C63FF"/>
<path d="M246.316 32.2987C246.878 30.2368 247.555 28.1647 248.029 26.0757C247.46 28.1647 246.78 30.2436 246.316 32.2987Z" fill="url(#paint0_linear_148_625)"/>
<path d="M243.797 52.1597C243.749 52.0785 243.716 51.9972 243.678 51.9227C243.678 51.8889 243.644 51.8618 243.631 51.8279C243.557 51.8627 243.481 51.8932 243.404 51.9193C243.255 51.9769 243.103 52.0311 242.947 52.0751C242.791 52.1191 242.727 52.1428 242.608 52.1699C242.51 52.2037 242.409 52.2298 242.307 52.2477L242.334 52.3087C242.459 52.2816 242.581 52.2579 242.707 52.224L242.74 52.6439C242.883 52.6439 243.015 52.6236 243.143 52.6236C243.204 52.6202 243.265 52.6202 243.326 52.6236C243.59 52.6236 243.821 52.6236 244.003 52.6236C243.932 52.4712 243.858 52.3121 243.797 52.1597ZM312.528 161.564C310.937 159.421 307.761 136.418 307.761 136.418C307.761 136.418 301.514 120.062 303.217 113.534C304.92 107.006 298.565 90.3039 298.565 90.3039C298.565 90.3039 294.367 88.479 294.14 85.7704C294.14 85.7704 276.998 80.3531 276.195 76.2902C275.545 72.9586 264.914 70.5682 261.095 69.8132C259.93 65.1137 258.759 60.7291 257.895 58.3354C257.662 57.5905 257.442 56.9472 257.238 56.4393C255.779 52.715 251.269 52.3764 247.999 52.6744C247.857 52.0396 247.594 51.4383 247.223 50.9036C247.169 50.7198 247.062 50.556 246.915 50.433C246.845 50.3731 246.77 50.3188 246.692 50.2705C246.632 50.1607 246.555 50.0622 246.461 49.9793C246.369 49.8956 246.266 49.8229 246.157 49.7626C246.078 49.72 245.997 49.6827 245.913 49.6509C245.717 49.5761 245.514 49.5206 245.307 49.485C245.066 49.4354 244.821 49.4037 244.576 49.3902C245.173 49.1287 245.706 48.7392 246.136 48.2491C246.429 47.9051 246.647 47.5038 246.776 47.0709C246.884 46.7109 246.932 46.3358 246.919 45.9604C246.831 46.1151 246.729 46.2613 246.614 46.3971C246.756 44.8972 245.964 43.3736 245.51 41.8805C244.96 39.9366 244.858 37.8935 245.212 35.9046C245.666 32.9048 246.79 29.8711 247.552 26.8172C247.554 26.8003 247.554 26.7832 247.552 26.7664C247.951 25.2497 248.198 23.697 248.29 22.1312C248.422 18.9723 247.613 15.8201 246.312 12.9422C245.158 10.3927 243.455 7.88387 240.848 6.84782C238.911 6.06571 236.741 6.19098 234.655 6.06232C229.976 5.77115 225.514 4.12566 221.065 2.62914C216.616 1.13263 212.038 -0.228456 207.356 0.0322494C202.673 0.292954 197.855 2.55127 195.719 6.69546C195.042 7.98883 194.652 9.42779 193.843 10.6433C192.326 12.9355 189.611 14.0832 187.346 15.6644C185.081 17.2456 183.086 19.4903 182.267 22.1685C181.82 23.6114 181.757 25.1461 182.084 26.6208C182.158 26.9538 182.253 27.2818 182.369 27.6027C182.69 28.4973 183.191 29.3165 183.841 30.0099C184.332 30.5224 184.896 30.9594 185.514 31.3067C186.291 31.7373 187.122 32.0607 187.986 32.2683C187.955 32.3698 187.925 32.4782 187.891 32.5831C187.837 32.7558 187.789 32.9217 187.738 33.1079C187.627 33.5244 187.522 33.9476 187.434 34.3742C187.43 34.4046 187.43 34.4353 187.434 34.4656C187.018 36.3915 186.809 38.3562 186.811 40.3264C186.81 41.2582 186.858 42.1894 186.953 43.1163C188.307 56.8558 199.65 67.6937 213.663 68.3979C214.144 68.4216 214.628 68.4352 215.119 68.4352C215.343 68.4352 215.563 68.4352 215.796 68.4352C216.016 68.7263 216.233 69.0243 216.44 69.3155C216.646 69.6066 216.836 69.9046 217.015 70.1958L216.524 69.6879L216.033 69.2376C215.9 69.4203 215.752 69.5913 215.59 69.7488C215.27 69.6362 214.943 69.5435 214.611 69.4712C213.206 69.1597 211.066 69.0446 208.25 69.8944C205.659 70.6698 202.494 72.2645 198.79 75.2948L180.74 86.1292L170.975 92.0679L167.458 100.668C167.458 100.668 164.813 110.886 161.871 122.594C161.756 122.628 161.644 122.662 161.533 122.702C161.294 122.675 161.055 122.662 160.815 122.662C159.108 122.658 157.465 123.316 156.233 124.497C155.001 125.678 154.274 127.291 154.206 128.997C148.355 136.107 148.023 143.217 149.398 146.481C149.522 146.787 149.679 147.078 149.865 147.351C150.766 148.651 152.448 152.003 154.155 155.575C154.111 155.87 154.084 156.117 154.07 156.303C154.067 156.364 154.067 156.425 154.07 156.486C154.07 156.486 155.086 171.827 151.7 176.225C150.959 177.183 151.07 178.443 151.7 179.837C153.969 184.855 162.938 191.556 162.938 191.556C162.938 191.556 173.694 191.498 179.687 190.845C179.67 191.447 179.657 192.047 179.643 192.632C179.508 198.551 179.508 203.511 179.508 203.511L179.284 209.717C179.284 209.717 177.253 222.796 176.237 226.402C175.597 228.664 176.335 249.605 176.978 265H282.96C284.206 255.892 282.449 228.22 282.449 228.22C282.449 228.22 280.78 221.066 280.719 214.83C280.715 214.823 280.714 214.815 280.714 214.807C280.714 214.8 280.715 214.792 280.719 214.785C280.719 214.24 280.719 213.709 280.739 213.187L281.508 213.16L282.889 213.113H283.014C283.014 213.113 283.048 212.984 283.126 212.774C283.309 212.251 283.558 211.754 283.868 211.295C284.457 210.425 285.378 209.571 286.762 209.514C287.528 209.483 288.713 208.864 290.05 207.95C290.059 207.952 290.068 207.952 290.077 207.95C293.676 205.515 298.433 201.022 299.588 200.284C301.176 199.268 308.78 192.497 308.78 192.497C308.78 192.497 309.914 191.061 311.123 189.331L311.167 189.27C312.67 187.103 314.268 184.513 313.876 183.697C313.199 182.235 314.329 178.737 314.329 178.737C317.861 172.274 314.119 163.708 312.528 161.564ZM247.057 57.4246C247.09 57.5257 247.11 57.6302 247.118 57.7361C247.034 57.6244 246.949 57.5059 246.864 57.3975L246.783 57.2892L246.726 57.2079L246.854 57.0319C246.854 57.0319 246.854 57.0319 246.854 57.0556C246.944 57.1653 247.012 57.2904 247.057 57.4246ZM245.92 54.4248C245.551 54.4993 245.259 54.567 245.07 54.6178C244.829 54.1912 244.599 53.7646 244.393 53.3312C244.936 53.6461 245.447 54.0123 245.92 54.4248ZM245.283 54.9598C245.282 54.953 245.282 54.9462 245.283 54.9394L245.31 54.9598C245.449 55.0512 245.585 55.1392 245.71 55.2306C245.822 55.3119 245.923 55.3898 246.025 55.471C245.957 55.5895 245.882 55.7114 245.808 55.8096C245.689 55.6234 245.578 55.4439 245.469 55.2577C245.402 55.1832 245.341 55.0816 245.283 54.9598ZM243.252 50.7817C243.906 50.7172 244.565 50.7172 245.219 50.7817C245.31 50.7817 245.392 50.7986 245.473 50.8122C245.656 50.8406 245.837 50.8871 246.011 50.951C246.411 51.5108 246.658 52.1657 246.726 52.8504L246.543 52.8775L246.363 52.9114C246.025 52.9689 245.686 53.0265 245.422 53.0807L245.083 53.1518C244.633 53.2499 244.372 53.3244 244.362 53.3278C244.318 53.2364 244.274 53.1517 244.227 53.0637C244.152 52.9181 244.074 52.7692 244.007 52.6236C243.939 52.478 243.851 52.3121 243.78 52.1597C243.732 52.0785 243.699 51.9972 243.661 51.9227C243.661 51.8889 243.628 51.8618 243.614 51.8279C243.594 51.792 243.577 51.7546 243.563 51.7162C243.357 51.2963 243.167 50.8765 242.984 50.4634C242.964 50.4228 242.947 50.3788 242.93 50.3382L243.187 50.3212V50.4093L243.252 50.7817ZM162.47 260.815C162.443 255.774 162.078 250.319 161.062 245.2C160.629 243.023 160.182 240.846 159.728 238.706C159.613 238.171 159.501 237.643 159.389 237.115L158.347 237.254H158.252C155.408 223.842 152.435 212.026 152.435 212.026C152.435 212.026 146.53 189.48 147.214 187.682C147.302 187.449 147.19 186.819 146.94 185.895C145.511 180.769 139.545 166.643 137.46 161.815C137.46 161.795 137.443 161.771 137.436 161.754C137.097 160.945 136.854 160.4 136.779 160.241L137.27 153.036L137.297 152.602L137.361 151.681L137.334 151.658L137.361 151.231C137.361 151.231 132.208 147.006 123.48 143.955C123.141 143.833 122.782 143.715 122.427 143.599C122.864 140.684 123.443 137.393 124.198 134.187C124.269 133.865 124.347 133.554 124.428 133.239C124.499 132.924 124.58 132.619 124.661 132.311C124.79 131.81 124.929 131.316 125.071 130.828C125.542 130.679 126.006 130.513 126.463 130.337L126.639 130.27C132.27 128.079 136.916 123.921 139.717 118.568C142.518 113.214 143.285 107.027 141.875 101.152C141.071 97.8198 139.586 94.6901 137.514 91.9596C137.358 91.7496 137.192 91.5397 137.026 91.3332C136.86 91.1267 136.661 90.8964 136.474 90.6865C137.453 88.462 138.607 86.3459 138.702 84.1824C138.719 83.9084 138.719 83.6337 138.702 83.3597V83.3258C138.577 81.9343 137.961 80.5258 136.525 79.0462C134.429 76.8759 131.446 75.7755 128.464 75.2474C125.481 74.7192 122.44 74.7056 119.441 74.3501C114.467 73.7542 109.622 72.2205 104.648 71.7498C98.5217 71.1825 92.3538 72.2333 86.761 74.797C83.0603 76.4899 79.3122 79.4491 79.0888 83.5087C78.9059 86.864 81.2421 90.0805 80.653 93.3951C80.0673 96.6522 76.7492 99.2153 77.0404 102.51C77.1521 103.796 77.8123 104.947 78.6385 105.973C78.9229 106.312 79.2242 106.65 79.5357 106.989C80.741 108.265 82.0683 109.491 82.742 111.099C82.7691 111.167 82.7962 111.235 82.8199 111.303C83.3921 112.89 83.1348 114.898 81.7195 115.809C81.7274 115.815 81.7333 115.823 81.7365 115.833C81.7568 115.86 81.7771 115.88 81.794 115.907C81.7961 115.902 81.7961 115.896 81.794 115.89C82.2958 116.485 82.9722 116.907 83.7273 117.096L84.0151 117.184C83.7815 117.438 83.5614 117.702 83.3379 117.979L83.1923 118.172C82.8192 118.674 82.4799 119.2 82.1766 119.747C82.0039 120.051 81.838 120.356 81.6992 120.661C81.2351 121.59 80.8991 122.577 80.7004 123.596C80.3381 125.838 80.8494 128.174 80.3009 130.368C79.6237 133.076 77.4805 135.155 76.2718 137.671C73.983 142.411 75.2798 147.974 75.7402 153.208C76.3666 160.318 75.3509 167.459 74.3385 174.522C73.8013 178.278 73.2641 182.037 72.7269 185.8C71.3726 195.244 70.0183 204.688 68.664 214.132C68.1696 217.592 67.5839 221.242 65.2782 223.914H65.3019C65.3019 223.914 65.3019 223.934 65.2782 223.941C65.9703 224.243 66.7065 224.433 67.4586 224.503C70.4686 224.804 73.658 223.348 76.3666 221.757C78.5117 220.517 80.5431 219.091 82.4373 217.494C82.1597 218.51 81.8617 219.617 81.5435 220.809C81.5445 220.82 81.5445 220.831 81.5435 220.843C77.7209 235.402 71.5723 262.092 71.5723 262.092C71.5723 262.092 71.0137 263.253 70.2891 264.983H165.768C164.651 263.629 163.611 262.332 162.799 261.286L162.47 260.815ZM91.7753 126.197C91.799 126.156 91.8159 126.119 91.8396 126.081C91.8396 126.19 91.8396 126.295 91.8396 126.396C91.8396 126.498 91.8396 126.589 91.8396 126.684C91.8396 126.779 91.8396 126.769 91.8396 126.816C91.8396 126.816 91.8396 126.864 91.8396 126.816C91.8396 126.955 91.8092 127.094 91.7855 127.233C91.7855 127.233 91.7855 127.25 91.7855 127.263L92.124 127.388L92.5168 127.551C94.8372 128.467 97.1869 129.297 99.566 130.039C99.8098 130.117 100.057 130.192 100.304 130.263L100.355 130.683C100.416 131.113 100.473 131.549 100.528 131.986C100.528 131.986 100.528 132.007 100.528 132.02C100.68 133.229 100.829 134.434 100.961 135.612C100.961 135.612 94.7446 133.242 94.8225 136.841C94.819 136.906 94.819 136.97 94.8225 137.034C94.8156 137.12 94.8156 137.206 94.8225 137.292C94.8801 140.095 95.757 141.758 95.933 142.611C95.9225 142.646 95.9039 142.679 95.8789 142.706C95.7287 143.033 95.6769 143.396 95.7299 143.752C95.724 144.358 95.7716 144.963 95.8721 145.56C95.6893 145.672 95.5098 145.783 95.3304 145.898C95.1949 145.983 95.0663 146.078 94.9342 146.173C94.1036 143.292 93.017 140.49 91.6873 137.803C90.7562 135.887 89.71 133.889 89.7201 131.786C89.7201 131.651 89.7201 131.512 89.7371 131.373C89.7748 130.764 89.8909 130.162 90.0824 129.582C90.1603 129.362 90.2449 129.146 90.3397 128.932C90.561 128.425 90.8085 127.93 91.0812 127.449C91.2573 127.131 91.4435 126.816 91.6229 126.498C91.6805 126.403 91.7347 126.305 91.7888 126.21L91.7753 126.197ZM243.797 52.1597C243.749 52.0785 243.716 51.9972 243.678 51.9227C243.678 51.8889 243.644 51.8618 243.631 51.8279C243.557 51.8627 243.481 51.8932 243.404 51.9193C243.255 51.9769 243.103 52.0311 242.947 52.0751C242.791 52.1191 242.727 52.1428 242.608 52.1699L242.307 52.2477L242.334 52.3087C242.459 52.2816 242.581 52.2579 242.707 52.224L242.74 52.6439C242.883 52.6439 243.015 52.6236 243.143 52.6236H243.326C243.59 52.6236 243.821 52.6236 244.003 52.6236C243.932 52.4712 243.858 52.3121 243.797 52.1597Z" fill="url(#paint1_linear_148_625)"/>
<path d="M169.817 101.89L167.786 102.787C167.786 102.787 154.544 154.231 154.544 158.389C154.544 162.546 182.623 185.681 182.623 185.681L187.004 156.11C187.004 156.11 180.713 88.2961 169.817 101.89Z" fill="#E8F5FF"/>
<path d="M231.408 85.5266L219.676 79.4051C219.019 76.6038 217.853 73.9471 216.237 71.567C214.52 69.0886 212.238 66.6542 209.394 65.3846C202.206 62.1613 239.798 45.2426 239.798 45.2426C240.39 47.275 241.088 49.2753 241.887 51.2354C243.824 56.0161 247.037 62.1985 251.178 63.9591C258.217 66.9556 231.408 85.5266 231.408 85.5266Z" fill="#FFC1C7"/>
<path opacity="0.1" d="M241.887 51.2354C240.281 56.8845 236.941 61.8864 232.338 65.5345C227.736 69.1827 222.103 71.2929 216.237 71.567C214.52 69.0886 212.238 66.6542 209.394 65.3846C202.206 62.1613 239.798 45.2426 239.798 45.2426C240.39 47.275 241.088 49.2753 241.887 51.2354Z" fill="black"/>
<path d="M242.944 42.693C242.945 48.2334 241.303 53.6498 238.226 58.2571C235.149 62.8644 230.774 66.4556 225.656 68.5766C220.538 70.6976 214.905 71.253 209.471 70.1727C204.037 69.0924 199.046 66.4249 195.128 62.5075C191.21 58.5901 188.542 53.5987 187.461 48.1648C186.38 42.7309 186.935 37.0985 189.055 31.9799C191.175 26.8613 194.766 22.4865 199.373 19.4087C203.98 16.331 209.396 14.6886 214.936 14.6893C218.619 14.6722 222.268 15.3849 225.674 16.7862C229.079 18.1874 232.173 20.2495 234.777 22.8532C237.381 25.4569 239.444 28.5508 240.845 31.9561C242.247 35.3614 242.96 39.0106 242.944 42.693Z" fill="#FFC1C7"/>
<path d="M246.986 81.9309L239.348 99.7536L232.61 111.584H211.043L204.752 95.4097L207.301 78.6365H223.773L234.408 78.0372L238 76.8387L240.316 78.1524L246.986 81.9309Z" fill="#575A89"/>
<path opacity="0.1" d="M244.355 58.1728C244.355 58.1728 249.119 59.1886 244.853 62.6861C240.587 66.1836 225.869 77.3059 225.869 77.3059C225.869 77.3059 231.039 81.9105 229.969 87.3041L247.098 77.7562L250.145 62.4796C250.145 62.4796 250.487 57.8884 244.355 58.1728Z" fill="black"/>
<path opacity="0.1" d="M229.238 77.3059L218.343 79.1038C218.343 79.1038 220.591 87.4158 219.467 89.7757C219.433 89.8491 219.404 89.9249 219.382 90.0026L214.936 102.019L218.268 111.455L229.8 95.7279L225.869 89.7757C225.869 89.7757 230.023 84.2705 232.495 82.3609C234.967 80.4513 229.238 77.3059 229.238 77.3059Z" fill="black"/>
<path d="M229.238 76.8421L218.343 78.6366C218.343 78.6366 220.591 86.9487 219.467 89.3085C219.433 89.3819 219.404 89.4577 219.382 89.5354L214.936 101.552L218.268 110.988L229.8 95.2506L225.869 89.2984C225.869 89.2984 230.023 83.7931 232.495 81.8835C234.967 79.9739 229.238 76.8421 229.238 76.8421Z" fill="#DCE6F2"/>
<path d="M244.812 57.2756C244.812 57.2756 249.576 58.2913 245.307 61.7888C241.037 65.2863 225.869 77.3058 225.869 77.3058C225.869 77.3058 231.486 81.0133 230.42 86.4034L247.548 76.8589L250.595 61.5823C250.595 61.5823 250.934 56.9912 244.812 57.2756Z" fill="#575A89"/>
<path opacity="0.1" d="M216.985 72.6267C216.985 72.6267 218.024 74.5701 222.612 78.0744C222.612 78.0744 214.974 82.1374 217.896 87.8492L206.211 84.802L204.413 79.185L216.985 72.6267Z" fill="black"/>
<path d="M216.534 72.1799C216.534 72.1799 217.574 74.1233 222.162 77.6276C222.162 77.6276 214.523 81.6702 217.445 87.399L205.764 84.3518L203.966 78.7381L216.534 72.1799Z" fill="#575A89"/>
<path opacity="0.1" d="M246.986 81.9308L239.348 99.7536L232.624 111.583H211.043L204.752 95.4096L207.298 78.6364H211.879C211.805 82.5504 213.233 87.1483 213.142 88.8581C212.986 91.6683 217.334 106.83 217.334 106.83C217.334 106.83 226.431 92.1152 230.023 90.8049C232.282 89.9822 237.066 83.1362 240.313 78.1523L246.986 81.9308Z" fill="black"/>
<path d="M277.076 175.72L276.3 176.695C276.3 176.695 281.917 204.889 280.363 211.291C280.099 212.445 279.948 213.622 279.913 214.806V214.857C279.639 221.371 281.606 229.825 281.606 229.825C281.606 229.825 283.177 254.744 282.283 264.993H177.114C176.498 249.838 175.834 230.204 176.437 228.027C177.452 224.435 179.484 211.403 179.484 211.403L179.707 205.227C179.707 205.227 179.707 199.258 179.89 192.609C179.968 189.619 180.083 186.48 180.249 183.697C180.462 180.196 180.76 177.247 181.17 175.798C181.422 174.7 181.567 173.58 181.603 172.453C181.603 172.348 181.603 172.24 181.624 172.131C181.624 171.793 181.658 171.427 181.671 171.051C181.671 170.946 181.671 170.841 181.671 170.713C181.735 168.532 181.712 165.946 181.641 163.264C181.641 163.119 181.641 162.97 181.641 162.821C181.583 160.809 181.498 158.758 181.404 156.807C181.109 150.713 180.726 145.56 180.726 145.56L167.81 102.764L171.29 94.1908L180.95 88.2725L198.81 77.4887C207.522 70.3278 213.257 71.1878 215.444 71.9733C215.657 72.0458 215.865 72.1306 216.067 72.2272C216.135 72.2611 216.189 72.2882 216.24 72.3187C216.309 72.3516 216.376 72.3901 216.44 72.4338C215.841 72.7219 215.32 73.1505 214.923 73.6831C214.475 74.2892 214.156 74.9806 213.985 75.7146C213.871 76.1696 213.79 76.6325 213.745 77.0994C213.701 77.5903 213.684 78.0982 213.684 78.6094C213.708 79.7306 213.804 80.8491 213.971 81.958C213.971 81.9783 213.971 82.0054 213.971 82.0325C214.083 82.8247 214.222 83.6001 214.357 84.328C214.356 84.3404 214.356 84.3529 214.357 84.3653C214.513 85.2151 214.669 86.0006 214.774 86.6777C214.794 86.7996 214.811 86.9114 214.828 87.0163C214.903 87.4638 214.938 87.917 214.933 88.3706C214.971 89.466 215.119 90.5549 215.373 91.621C215.461 92.0679 215.563 92.5453 215.674 93.043C215.827 93.7202 215.993 94.4583 216.172 95.2099C216.27 95.623 216.375 96.0496 216.484 96.4728C216.524 96.6421 216.568 96.8114 216.609 96.9841L216.677 97.2515C217.398 100.119 218.18 102.974 218.661 104.7C218.945 105.716 219.125 106.342 219.125 106.342C219.125 106.342 224.224 98.098 228.293 93.4053C228.354 93.3376 228.408 93.2733 228.466 93.2123C228.869 92.7485 229.265 92.3252 229.644 91.9528C230.474 91.1267 231.219 90.5375 231.818 90.3208C231.946 90.274 232.069 90.2162 232.187 90.1482C233.853 89.2035 236.541 85.7737 239.057 82.1814C239.304 81.8429 239.544 81.4738 239.788 81.1251C240.347 80.3193 240.888 79.5101 241.4 78.7347C241.792 78.1422 242.168 77.5666 242.524 77.0181C244.217 74.384 245.408 72.4202 245.408 72.4202L247.758 72.3153L248.168 72.295H248.442L259.111 71.8006C259.111 71.8006 259.571 71.8785 260.33 72.0309C260.37 72.0309 260.411 72.0309 260.455 72.058C264.24 72.8096 274.756 75.1898 275.4 78.4909C276.185 82.5336 293.148 87.9271 293.148 87.9271C293.371 90.6357 297.526 92.42 297.526 92.42C297.526 92.42 303.816 109.044 302.134 115.558C300.471 121.991 306.461 137.905 306.62 138.352L305.472 139.801L277.076 175.72Z" fill="#E8F5FF"/>
<path opacity="0.1" d="M244.352 56.9912C244.352 56.9912 254.736 54.0456 257.096 60.1095C259.456 66.1735 264.735 90.6628 264.735 90.6628C264.735 90.6628 251.029 93.2462 247.437 90.6628C245.329 89.1296 242.721 88.4477 240.133 88.7532L232.383 94.0317L230.095 93.3545C230.095 93.3545 242.493 74.9223 245.188 68.6586C247.883 62.3949 248.794 59.5949 244.352 56.9912Z" fill="black"/>
<path d="M243.902 55.6369C243.902 55.6369 254.293 52.6913 256.663 58.7552C259.033 64.8192 264.301 89.3085 264.301 89.3085C264.301 89.3085 250.599 91.8919 247.003 89.3085C244.897 87.7752 242.29 87.0932 239.703 87.3989L231.947 92.6773L229.658 92.0002C229.658 92.0002 242.057 73.568 244.752 67.3043C247.447 61.0406 248.344 58.2474 243.902 55.6369Z" fill="#E8F5FF"/>
<path opacity="0.1" d="M174.199 153.334C174.199 153.334 181.949 155.243 183.411 159.624C184.874 164.006 177.683 164.117 177.683 164.117C177.683 164.117 173.301 156.367 174.199 153.334Z" fill="black"/>
<path opacity="0.1" d="M203.066 185.681C203.066 185.681 184.085 224.547 188.466 228.254C192.848 231.961 203.066 185.681 203.066 185.681Z" fill="black"/>
<path opacity="0.1" d="M229.238 157.041C229.238 157.041 244.403 194.792 241.369 200.623C238.336 206.453 247.883 200.623 247.883 200.623L229.238 157.041Z" fill="black"/>
<path d="M250.355 194.332C250.355 194.332 199.135 196.804 214.076 212.754C229.018 228.704 259.679 213.431 259.679 213.431L250.355 194.332Z" fill="#FFC1C7"/>
<path opacity="0.1" d="M242.944 42.6931C242.948 46.3667 242.227 50.005 240.821 53.3989C240.35 53.4531 239.88 53.487 239.426 53.5073C238.749 52.0209 239.111 50.3043 239.124 48.669C239.138 47.0337 238.535 45.1105 236.961 44.6704C233.822 43.7867 231.655 49.6543 228.561 48.5945C226.191 47.7887 226.81 44.193 225.446 42.1175C224.366 40.4754 222.202 40.0115 220.52 38.9823C216.941 36.7849 217.049 33.2705 215.387 29.9456C213.646 26.4617 209.97 27.4909 206.777 29.5461C204.352 31.1103 202.26 33.2061 199.667 34.4521C197.422 35.5355 194.899 35.9283 192.411 35.9859C190.879 36.0452 189.346 35.8833 187.86 35.5051C189.608 28.9346 193.686 23.2241 199.333 19.4384C204.981 15.6528 211.813 14.0505 218.554 14.9303C225.296 15.8101 231.488 19.112 235.975 24.2202C240.462 29.3284 242.937 35.8941 242.94 42.6931H242.944Z" fill="black"/>
<path d="M206.787 28.6489C204.359 30.2131 202.27 32.3055 199.677 33.5583C197.432 34.6383 194.91 35.0311 192.421 35.0886C189.374 35.1563 186.093 34.6214 184.011 32.4206C182.098 30.3892 181.641 27.2641 182.45 24.5995C183.259 21.9349 185.199 19.724 187.478 18.1225C189.756 16.521 192.401 15.4139 193.911 13.1217C194.71 11.9096 195.096 10.4808 195.759 9.19079C197.882 5.06353 202.656 2.82891 207.271 2.55128C211.886 2.27364 216.46 3.64827 220.855 5.13801C225.25 6.62776 229.678 8.26648 234.317 8.57458C236.382 8.70324 238.529 8.57458 240.445 9.3567C243.021 10.4029 244.711 12.905 245.862 15.4511C247.152 18.3222 247.955 21.4575 247.819 24.5927C247.535 31.2864 243.113 37.8548 245.056 44.2675C245.571 45.9773 246.536 47.7311 246.021 49.4409C245.27 51.9363 242.05 52.5051 239.446 52.6236C238.769 51.1372 239.131 49.4172 239.145 47.7853C239.158 46.1534 238.556 44.2268 236.985 43.7867C233.843 42.9098 231.676 48.7672 228.588 47.7108C226.235 46.9016 226.844 43.3093 225.476 41.2338C224.396 39.5883 222.229 39.1279 220.55 38.0986C216.971 35.9012 217.08 32.3868 215.417 29.0619C213.663 25.561 209.983 26.5903 206.787 28.6489Z" fill="#99607E"/>
<path d="M157.121 157.488L154.538 158.389C154.538 158.389 155.553 173.665 152.167 178.046C148.782 182.428 163.286 193.32 163.286 193.32C163.286 193.32 183.168 193.208 183.73 191.627C184.292 190.046 182.714 163.322 182.714 163.322C182.714 163.322 172.042 159.164 172.939 152.538C172.939 152.538 169.682 168.15 164.854 167.476C160.026 166.802 154.544 162.77 157.121 157.488Z" fill="#E8F5FF"/>
<path opacity="0.1" d="M165.738 172.203C169.502 172.203 172.553 169.412 172.553 165.969C172.553 162.527 169.502 159.736 165.738 159.736C161.973 159.736 158.922 162.527 158.922 165.969C158.922 169.412 161.973 172.203 165.738 172.203Z" fill="black"/>
<path d="M173.19 157.938C173.19 157.938 171.835 116.605 160.046 125.814C148.257 135.023 148.142 146.037 150.387 149.291C152.631 152.545 159.829 168.834 159.829 168.834C160.955 169.486 162.22 169.863 163.519 169.932C164.819 170.002 166.116 169.763 167.306 169.234C168.495 168.706 169.542 167.903 170.361 166.892C171.18 165.88 171.748 164.689 172.018 163.416L173.19 157.938Z" fill="#FFC1C7"/>
<path opacity="0.1" d="M246.732 53.2398C246.677 53.0582 246.572 52.8961 246.428 52.7726C245.845 52.241 244.592 52.0548 242.703 52.2173L242.781 53.1112C245.3 52.8945 245.798 53.3956 245.862 53.4802V53.5649L245.94 53.6766C246.254 54.0987 246.477 54.5818 246.593 55.0948C246.71 55.6079 246.718 56.1397 246.617 56.6561C246.065 59.4155 242.676 61.6128 242.642 61.6365L242.561 61.6839L242.51 61.7618C241.048 63.9321 232.776 70.057 230.613 71.6415L230.423 71.4248C229.455 72.2645 220.943 79.7166 220.482 82.5708C220.184 84.3619 218.166 85.056 217.435 85.249C216.663 84.6632 214.158 82.669 212.854 80.4344C211.632 78.3318 216.551 74.2283 216.985 72.6268L216.308 71.9327C216.237 72.19 209.919 78.0948 211.676 81.1115C213.084 83.5324 215.658 85.6045 216.558 86.2884C216.27 88.9022 214.479 104.25 211.727 107.886C208.307 112.406 205.433 135.186 205.751 143.139C206.032 150.205 204.187 163.552 198.024 169.284C196.958 170.32 195.671 171.102 194.259 171.571C192.848 172.04 191.35 172.184 189.875 171.993H189.8H189.726C189.638 171.993 180.699 172.907 173.19 166.575C167.045 161.405 163.564 152.968 162.839 141.49H162.69L162.63 138.148C164.296 137.888 165.796 136.993 166.816 135.649C167.835 134.306 168.295 132.62 168.097 130.945C167.9 129.271 167.061 127.738 165.757 126.668C164.453 125.599 162.785 125.077 161.104 125.212C159.423 125.347 157.86 126.128 156.742 127.391C155.625 128.654 155.041 130.301 155.113 131.986C155.184 133.671 155.906 135.262 157.127 136.426C158.347 137.59 159.971 138.235 161.658 138.226H161.732L161.793 141.548L161.495 141.568C162.24 153.418 165.897 162.184 172.33 167.598C177.219 171.65 183.465 173.694 189.804 173.317C190.254 173.366 190.706 173.391 191.158 173.391C194.064 173.406 196.859 172.282 198.945 170.259C205.436 164.216 207.41 150.378 207.102 143.071C206.763 134.644 209.78 112.684 212.807 108.685C215.773 104.761 217.571 89.471 217.885 86.5085C218.959 86.2071 221.386 85.2557 221.799 82.7841C222.097 80.9964 227.782 75.4878 231.28 72.4372L231.175 72.3153C233.057 70.9407 238.911 66.6069 241.813 63.8238C242.713 62.9604 243.607 62.097 244.542 61.2743C245.666 60.2788 247.095 58.6977 247.47 56.8287C247.599 56.2118 247.599 55.5752 247.472 54.958C247.345 54.3408 247.093 53.7561 246.732 53.2398Z" fill="black"/>
<path d="M216.443 86.0751C216.301 85.9769 212.929 83.5628 211.239 80.6578C209.485 77.6411 215.803 71.7397 215.871 71.4824L216.548 72.1765C216.118 73.7745 211.198 77.8815 212.421 79.9807C213.961 82.6317 217.205 84.951 217.239 84.9747L216.443 86.0751Z" fill="#353146"/>
<path d="M230.172 72.2984L229.644 71.5704C229.753 71.4925 240.387 63.8 242.063 61.3115L242.117 61.237L242.195 61.1862C242.229 61.1625 245.618 58.9685 246.17 56.2057C246.272 55.6899 246.264 55.1585 246.148 54.6458C246.031 54.1331 245.808 53.6507 245.493 53.2296L245.415 53.1145V53.0333C245.347 52.9452 244.85 52.4475 242.331 52.6642L242.253 51.767C244.146 51.6045 245.395 51.7907 245.977 52.3223C246.122 52.447 246.229 52.6101 246.285 52.7929C246.651 53.3077 246.908 53.892 247.04 54.5098C247.171 55.1277 247.175 55.7659 247.051 56.3852C246.675 58.2575 245.249 59.8387 244.122 60.8307C243.191 61.6535 242.294 62.5236 241.396 63.3802C237.994 66.6407 230.545 72.0309 230.172 72.2984Z" fill="#E8F5FF"/>
<path d="M162.193 136.97L161.296 136.986L161.396 142.44L162.293 142.423L162.193 136.97Z" fill="#E8F5FF"/>
<path d="M161.221 137.796C164.839 137.796 167.773 134.863 167.773 131.245C167.773 127.626 164.839 124.693 161.221 124.693C157.603 124.693 154.67 127.626 154.67 131.245C154.67 134.863 157.603 137.796 161.221 137.796Z" fill="#6C63FF"/>
<path d="M161.221 136.686C164.226 136.686 166.662 134.25 166.662 131.245C166.662 128.24 164.226 125.804 161.221 125.804C158.216 125.804 155.78 128.24 155.78 131.245C155.78 134.25 158.216 136.686 161.221 136.686Z" fill="#E8F5FF"/>
<path d="M190.731 172.954C190.279 172.955 189.827 172.931 189.377 172.883C183.039 173.256 176.794 171.213 171.903 167.164C165.47 161.747 161.82 152.992 161.069 141.131L162.423 141.047C163.148 152.524 166.628 160.965 172.777 166.132C180.286 172.446 189.221 171.549 189.309 171.549H189.384H189.458C190.934 171.739 192.433 171.594 193.844 171.126C195.256 170.657 196.543 169.876 197.611 168.84C203.77 163.108 205.615 149.762 205.334 142.695C204.996 134.735 207.87 111.956 211.293 107.439C214.29 103.481 216.149 85.6417 216.169 85.4622L216.22 84.9543L216.721 84.8663C216.751 84.8663 219.677 84.311 220.042 82.1238C220.516 79.273 229.014 71.8209 229.979 70.9778L230.863 71.9936C227.352 75.0408 221.667 80.5528 221.383 82.3439C220.97 84.8223 218.542 85.7703 217.472 86.0683C217.134 89.0342 215.349 104.321 212.394 108.245C209.367 112.244 206.35 134.204 206.689 142.631C206.98 149.938 205.026 163.779 198.536 169.819C196.446 171.846 193.643 172.972 190.731 172.954Z" fill="#353146"/>
<g opacity="0.1">
<path opacity="0.1" d="M245.828 34.6891C246.384 32.6373 247.054 30.572 247.521 28.4931C246.963 30.5821 246.289 32.6373 245.828 34.6891Z" fill="black"/>
<path opacity="0.1" d="M240.164 50.8122C239.487 49.3258 239.849 47.6058 239.863 45.9739C239.876 44.342 239.273 42.4324 237.702 41.9753C234.56 41.0984 232.393 46.9592 229.306 45.8994C226.936 45.0902 227.562 41.4979 226.194 39.4224C225.114 37.7769 222.951 37.3165 221.271 36.2872C217.689 34.0898 217.797 30.5754 216.138 27.2505C214.395 23.7632 210.721 24.7925 207.525 26.851C205.097 28.4152 203.008 30.511 200.415 31.7604C198.17 32.8405 195.648 33.2332 193.159 33.2908C190.129 33.3619 186.831 32.8235 184.749 30.6228C183.144 28.9299 182.565 26.4481 182.897 24.1221C182.839 24.2812 182.788 24.4403 182.738 24.5995C181.925 27.2641 182.399 30.3959 184.298 32.4206C186.381 34.6214 189.678 35.1563 192.709 35.0886C195.201 35.0311 197.72 34.6383 199.968 33.5582C202.568 32.3055 204.657 30.2131 207.078 28.6489C210.274 26.5903 213.951 25.561 215.691 29.0484C217.35 32.3732 217.246 35.8877 220.824 38.085C222.517 39.1008 224.667 39.5748 225.751 41.2203C227.105 43.3025 226.506 46.8881 228.862 47.6973C231.947 48.7536 234.113 42.8962 237.255 43.7731C238.826 44.2133 239.433 46.1432 239.416 47.7717C239.399 49.4003 239.047 51.1237 239.717 52.61C242.321 52.4915 245.54 51.9329 246.295 49.4274C246.399 49.0678 246.447 48.6944 246.438 48.3202C245.337 50.2197 242.507 50.7072 240.164 50.8122Z" fill="black"/>
</g>
<path opacity="0.1" d="M301.355 134.238L305.286 138.396C305.286 138.396 308.431 161.307 310.002 163.45C311.573 165.594 315.284 174.119 311.8 180.521C311.8 180.521 310.676 184.005 311.35 185.465C312.024 186.924 306.298 194.227 306.298 194.227C306.298 194.227 298.772 200.965 297.197 201.977C295.623 202.989 287.314 211.075 284.507 211.186C281.701 211.298 280.783 214.782 280.783 214.782L264.944 215.344C264.944 215.344 256.195 214.887 254.293 216.123C254.293 216.123 255.308 202.756 245.534 193.993L258 189.501C258 189.501 262.72 187.469 264.179 185.346C265.097 184.045 266.399 183.063 267.904 182.539C267.904 182.539 271.384 180.068 271.496 178.72C271.608 177.373 275.752 175.72 275.752 175.72L273.405 155.694L274.641 122.445C274.641 122.445 278.572 94.587 286.884 96.1613C295.196 97.7357 301.355 134.238 301.355 134.238Z" fill="black"/>
<path d="M302.709 134.238L306.64 138.396C306.64 138.396 309.786 161.307 311.357 163.45C312.928 165.594 316.638 174.119 313.154 180.521C313.154 180.521 312.034 184.005 312.708 185.465C313.381 186.924 307.653 194.227 307.653 194.227C307.653 194.227 300.126 200.965 298.552 201.977C296.977 202.989 288.669 211.075 285.862 211.186C283.055 211.298 282.137 214.782 282.137 214.782L266.299 215.344C266.299 215.344 257.543 214.887 255.647 216.123C255.647 216.123 256.663 202.756 246.888 193.993L259.354 189.501C259.354 189.501 264.074 187.469 265.533 185.346C266.451 184.045 267.754 183.063 269.258 182.539C269.258 182.539 272.738 180.068 272.85 178.72C272.962 177.373 277.106 175.72 277.106 175.72L274.76 155.694L275.996 122.445C275.996 122.445 279.926 94.587 288.239 96.1613C296.551 97.7357 302.709 134.238 302.709 134.238Z" fill="#E8F5FF"/>
<path opacity="0.1" d="M288.096 167.825C288.096 167.825 299.666 164.778 302.699 168.502C305.733 172.226 288.096 167.825 288.096 167.825Z" fill="black"/>
<path opacity="0.1" d="M285.401 172.934C289.332 175.687 301.463 175.798 301.463 175.798L285.401 172.934Z" fill="black"/>
<path opacity="0.1" d="M291.353 186.694C291.692 186.805 299.693 195.344 303.051 192.761C306.41 190.178 291.353 186.694 291.353 186.694Z" fill="black"/>
<path opacity="0.1" d="M183.604 115.03C183.604 115.03 185.954 131.208 184.796 137.796C183.638 144.385 187.864 152.548 187.864 152.548L183.604 115.03Z" fill="black"/>
<path d="M131.585 121.609C128.877 123.732 126.899 128.756 125.467 134.278C122.968 143.911 122.153 155.081 122.153 155.081C122.153 155.081 100.585 150.137 102.156 147.893C103.145 146.481 101.818 135.843 100.71 128.13C100.05 123.573 99.461 120.034 99.461 120.034C99.461 120.034 139 115.765 131.585 121.609Z" fill="#FFCCD0"/>
<path opacity="0.1" d="M131.585 121.158C128.877 123.285 126.899 128.306 125.467 133.828C121.17 135.133 116.6 135.251 112.242 134.169C107.883 133.087 103.898 130.846 100.71 127.683C100.05 123.122 99.461 119.584 99.461 119.584C99.461 119.584 139 115.318 131.585 121.158Z" fill="black"/>
<path d="M143.178 109.058C143.18 114.947 141.099 120.647 137.303 125.149C133.507 129.651 128.24 132.664 122.436 133.657C116.631 134.649 110.662 133.556 105.586 130.571C100.51 127.586 96.6532 122.901 94.699 117.345C92.7447 111.79 92.8188 105.723 94.908 100.217C96.9973 94.711 100.967 90.1217 106.115 87.2613C111.262 84.4008 117.256 83.4536 123.034 84.5874C128.813 85.7211 134.005 88.8627 137.69 93.456C141.241 97.8807 143.177 103.384 143.178 109.058Z" fill="#FFCCD0"/>
<path opacity="0.1" d="M162.843 264.993H155.733L155.133 252.435L154.507 239.437C154.507 239.437 156.122 239.197 158.695 238.838L159.735 238.699H159.819C160.381 241.337 160.937 244.045 161.472 246.751C162.362 251.553 162.825 256.425 162.856 261.309C162.856 261.648 162.856 261.987 162.856 262.305C162.877 263.209 162.856 264.113 162.843 264.993Z" fill="black"/>
<path d="M161.478 264.993H72.3105C72.6964 264.116 72.9538 263.585 72.9538 263.585C72.9538 263.585 80.0876 232.375 83.7138 219.17C83.7149 219.159 83.7149 219.147 83.7138 219.136C84.1668 217.342 84.7138 215.574 85.3525 213.837C85.3937 213.719 85.4471 213.606 85.5116 213.499C87.3061 210.58 89.5542 207.435 86.4088 202.942C83.2634 198.449 84.3774 178.679 84.3774 178.679C84.3774 178.679 88.1965 161.828 92.2392 152.843C92.8527 151.451 93.7234 150.187 94.8056 149.118C95.1574 148.774 95.533 148.455 95.9296 148.163C96.2312 147.937 96.5454 147.728 96.8709 147.537L96.9352 147.496C98.6335 146.534 100.519 145.948 102.464 145.78C103.846 145.635 105.24 145.674 106.612 145.895C113.167 146.856 118.415 148.465 122.586 150.296C133.891 155.263 137.314 161.92 137.382 162.059L137.409 162.116C137.863 163.176 144.499 178.669 146.889 185.898C147.509 187.78 147.847 189.104 147.712 189.467C147.035 191.261 152.878 213.726 152.878 213.726C152.878 213.726 155.587 224.56 158.296 237.26C158.414 237.788 158.526 238.317 158.634 238.852C159.118 241.157 159.599 243.507 160.063 245.853C160.962 250.689 161.425 255.595 161.448 260.514C161.498 262.046 161.508 263.54 161.478 264.993Z" fill="#FF748E"/>
<path opacity="0.1" d="M101.933 138.054C101.933 138.054 95.7806 135.684 95.8551 139.279C95.9296 142.875 97.355 144.595 96.9047 145.12C96.4544 145.645 97.1282 148.79 97.1282 148.79C97.1282 148.79 105.44 148.79 109.259 150.51C113.079 152.23 127.157 155.677 128.955 156.726C130.752 157.776 137.419 162.482 137.419 162.482L138.018 153.571C138.018 153.571 131.128 147.879 119.823 144.961C108.518 142.042 101.933 138.054 101.933 138.054Z" fill="black"/>
<path d="M101.933 137.603C101.933 137.603 95.7806 135.233 95.8551 138.829C95.9296 142.425 97.355 144.145 96.9047 144.669C96.4544 145.194 97.1282 148.34 97.1282 148.34C97.1282 148.34 105.44 148.34 109.259 150.063C113.079 151.786 127.157 155.23 128.955 156.276C130.752 157.322 137.419 162.032 137.419 162.032L138.025 153.147C138.025 153.147 131.135 147.456 119.83 144.537C108.525 141.619 101.933 137.603 101.933 137.603Z" fill="#FF748E"/>
<path opacity="0.1" d="M120.504 159.049C120.504 159.049 132.259 171.776 131.66 175.301C131.06 178.825 120.504 159.049 120.504 159.049Z" fill="black"/>
<path opacity="0.1" d="M101.408 205.024C101.408 205.024 92.791 212.964 90.2517 213.414C87.7123 213.865 92.1985 215.361 95.117 214.166C98.0356 212.971 104.259 209.825 104.259 209.825L101.408 205.024Z" fill="black"/>
<path d="M164.979 264.993H144.885C142.074 262.555 139.417 260.297 137.724 258.939C135.015 256.766 133.062 253.566 131.816 250.993C131.535 250.407 131.291 249.859 131.084 249.361C130.714 248.504 130.389 247.628 130.109 246.737L144.99 237.9C145.812 238.6 146.585 239.355 147.302 240.162L147.482 240.368C148.308 241.344 149.036 242.451 149.1 243.358C149.174 244.414 152.113 248.501 155.116 252.425C158.164 256.417 161.285 260.233 161.492 260.49C161.492 260.49 162.007 261.191 162.846 262.268C163.439 263.046 164.17 263.981 164.979 264.993Z" fill="#FFCCD0"/>
<path opacity="0.1" d="M137.69 93.4561C136.975 95.0677 136.336 96.7403 136.241 98.5348C135.973 103.715 136.407 115.298 130.671 117.898C127.83 119.178 124.79 116.368 121.675 116.3C119.434 116.253 117.379 117.675 116.011 119.452C114.643 121.23 113.793 123.339 112.801 125.35C111.898 127.176 110.858 128.93 109.689 130.598C109.34 131.109 108.956 131.594 108.538 132.051C105.041 130.575 101.927 128.32 99.4327 125.459C96.9387 122.597 95.1309 119.204 94.1469 115.538C93.1629 111.872 93.0288 108.029 93.7548 104.303C94.4807 100.577 96.0476 97.0665 98.3359 94.0379C100.624 91.0093 103.574 88.5431 106.96 86.8271C110.346 85.111 114.079 84.1906 117.874 84.1358C121.67 84.081 125.427 84.8933 128.861 86.5108C132.296 88.1283 135.315 90.5084 137.69 93.4696V93.4561Z" fill="black"/>
<path d="M135.79 97.6206C135.52 102.801 135.956 114.384 130.217 116.98C127.377 118.26 124.336 115.453 121.221 115.386C118.98 115.335 116.928 116.76 115.557 118.535C114.186 120.309 113.343 122.421 112.347 124.436C111.444 126.261 110.404 128.016 109.236 129.684C108.538 130.673 107.766 131.665 106.693 132.22C104.824 133.195 102.559 132.646 100.555 132.02C97.9543 131.201 95.3924 130.278 92.8689 129.251C92.9268 128.87 92.9562 128.485 92.9569 128.099C92.8824 128.242 92.8012 128.374 92.7199 128.516L92.5608 128.793C92.273 129.301 91.992 129.809 91.7347 130.331C91.6365 130.53 91.5417 130.737 91.457 130.943C91.1165 131.712 90.9027 132.531 90.8239 133.368C90.6512 135.626 91.7651 137.769 92.7538 139.801C96.556 147.659 98.9057 156.848 96.0448 165.092C94.8056 168.678 92.659 171.864 91.0914 175.328C88.351 181.462 87.5444 188.286 88.7789 194.891C89.561 198.994 91.1286 203.057 90.7426 207.218C90.0655 214.379 83.8898 219.708 77.704 223.372C74.3622 225.342 70.2722 227.096 66.7239 225.539C68.9856 222.898 69.568 219.245 70.0555 215.798C71.3895 206.397 72.7269 196.991 74.0677 187.581C74.6026 183.836 75.1364 180.091 75.6691 176.347C76.6646 169.311 77.6735 162.198 77.0505 155.118C76.5968 149.9 75.317 144.361 77.5787 139.638C78.7739 137.136 80.9036 135.064 81.5672 132.369C82.1123 130.178 81.6044 127.849 81.9633 125.618C82.1597 124.602 82.4923 123.618 82.952 122.692C83.5373 121.435 84.3013 120.27 85.2204 119.232C84.313 118.968 83.4666 118.606 82.952 117.847C84.4078 116.899 84.6279 114.763 83.9677 113.158C83.3075 111.553 81.987 110.331 80.7986 109.064C79.6102 107.798 78.4658 106.322 78.3168 104.595C78.029 101.308 81.3132 98.7616 81.8922 95.518C82.4779 92.2169 80.1621 89.0071 80.3483 85.6654C80.565 81.6261 84.2758 78.6907 87.9392 76.9876C93.4675 74.4285 99.5743 73.3772 105.64 73.9404C110.577 74.4077 115.354 75.9346 120.277 76.5272C123.246 76.8657 126.256 76.8996 129.205 77.421C132.154 77.9424 135.11 79.0428 137.185 81.2063C142.657 86.9113 136.102 91.6074 135.79 97.6206Z" fill="#FFE0D0"/>
<path opacity="0.1" d="M131.213 250.996C129.486 250.248 126.344 250.695 120.951 249.053C115.557 247.411 114.518 239.989 114.518 239.989V239.966C114.453 239.796 113.952 238.692 110.56 234.826C106.812 230.556 98.7094 208.992 98.7094 208.992C98.7094 208.992 91.5248 201.276 91.7516 198.432C91.9785 195.588 90.4752 188.021 90.6242 179.556C90.7731 171.092 106.798 165.478 106.798 165.478C137.653 160.01 130.387 195.581 129.564 198.276C128.741 200.971 133.011 208.251 133.011 208.251C132.408 211.42 135.482 216.326 135.482 216.326C135.482 216.326 136.227 220.667 136.38 222.315C136.388 222.392 136.405 222.467 136.43 222.539C136.925 224.093 140.954 225.501 142.592 226.358C144.316 227.259 149.858 235.12 149.858 235.12C151.054 240.893 132.933 251.755 131.213 250.996Z" fill="black"/>
<path d="M132.11 249.642C130.387 248.89 127.241 249.341 121.851 247.695C116.461 246.05 115.418 238.635 115.418 238.635V238.611C115.357 238.439 114.853 237.338 111.46 233.472C107.712 229.202 99.61 207.635 99.61 207.635C99.61 207.635 92.4253 199.922 92.6488 197.078C92.8722 194.234 91.3757 186.667 91.5247 178.209C91.6737 169.751 107.688 164.141 107.688 164.141C138.543 158.673 131.277 194.244 130.454 196.939C129.632 199.634 133.901 206.914 133.901 206.914C133.298 210.083 136.373 214.989 136.373 214.989C136.373 214.989 137.118 219.329 137.273 220.978C137.279 221.054 137.295 221.13 137.321 221.202C137.815 222.756 141.844 224.164 143.486 225.021C145.206 225.918 150.752 233.783 150.752 233.783C151.954 239.546 133.833 250.407 132.11 249.642Z" fill="#FF748E"/>
<path opacity="0.1" d="M108.298 182.712C108.298 182.712 121.777 196.932 125.294 196.932C128.812 196.932 108.298 182.712 108.298 182.712Z" fill="black"/>
<path d="M132.11 249.642C130.387 248.89 127.241 249.341 121.851 247.695C116.461 246.05 115.418 238.635 115.418 238.635V238.611C118.99 236.241 128.037 229.548 131.602 227.1C134.111 225.383 136.159 222.861 137.358 221.188C137.852 222.742 141.881 224.151 143.524 225.007C145.243 225.904 150.789 233.77 150.789 233.77C151.954 239.546 133.833 250.407 132.11 249.642Z" fill="#FF748E"/>
<g opacity="0.1">
<path opacity="0.1" d="M82.9723 117.884C82.9892 117.912 83.0129 117.935 83.0332 117.962C83.1348 117.834 83.2397 117.705 83.3481 117.583C83.2327 117.695 83.1068 117.796 82.9723 117.884Z" fill="black"/>
<path opacity="0.1" d="M90.8273 133.405C90.9695 131.526 91.9751 129.87 92.9163 128.218C92.3001 127.981 91.6839 127.74 91.0744 127.49C91.1325 127.11 91.1619 126.726 91.1625 126.342C90.2111 128.035 89.175 129.701 89.0294 131.607C88.8568 133.869 89.9707 136.009 90.9593 138.04C94.7649 145.895 97.1113 155.084 94.2503 163.332C93.0077 166.914 90.8645 170.103 89.2969 173.567C86.5576 179.701 85.7521 186.524 86.9878 193.127C87.7631 197.234 89.3341 201.293 88.9482 205.454C88.271 212.615 82.0987 217.944 75.9095 221.604C73.3804 223.101 70.4246 224.472 67.5974 224.374C67.3357 224.795 67.0438 225.197 66.7239 225.576C70.2756 227.144 74.3622 225.38 77.704 223.402C83.8966 219.746 90.0824 214.43 90.7596 207.256C91.1455 203.094 89.5745 199.035 88.7958 194.928C87.5597 188.325 88.3628 181.503 91.0981 175.368C92.6556 171.908 94.8225 168.715 96.0515 165.133C98.9125 156.885 96.5628 147.696 92.7606 139.841C91.7753 137.796 90.6546 135.667 90.8273 133.405Z" fill="black"/>
<path opacity="0.1" d="M137.179 81.2469C136.846 80.9052 136.488 80.5884 136.109 80.2989C140.212 85.6213 134.287 90.1447 133.993 95.8735C133.728 101.054 134.162 112.64 128.423 115.233C125.586 116.517 122.542 113.706 119.43 113.639C117.186 113.591 115.134 115.017 113.763 116.791C112.391 118.565 111.548 120.678 110.556 122.689C109.651 124.514 108.61 126.268 107.441 127.937C106.764 128.929 105.972 129.917 104.895 130.476C103.033 131.448 100.768 130.903 98.7602 130.273C96.8077 129.659 94.8733 128.982 92.9569 128.242C92.953 128.594 92.9236 128.946 92.8689 129.295C95.3947 130.324 97.9577 131.247 100.558 132.064C102.562 132.694 104.827 133.239 106.693 132.267C107.766 131.709 108.545 130.717 109.239 129.725C110.409 128.058 111.449 126.305 112.351 124.48C113.346 122.469 114.186 120.353 115.56 118.579C116.935 116.804 118.983 115.382 121.225 115.43C124.34 115.497 127.384 118.308 130.221 117.024C135.96 114.431 135.523 102.845 135.79 97.6646C136.102 91.6413 142.657 86.9486 137.179 81.2469Z" fill="black"/>
</g>
<path opacity="0.1" d="M92.5642 128.797C92.2764 129.305 91.9954 129.813 91.738 130.334C91.6399 130.534 91.5451 130.74 91.4604 130.947C89.6863 129.159 85.366 124.91 82.9553 123.593C83.5415 122.337 84.3055 121.171 85.2238 120.133C85.2238 120.133 90.9695 123.17 92.5642 128.797Z" fill="black"/>
<path d="M92.7233 128.519C91.3927 122.496 85.2238 119.235 85.2238 119.235C84.3047 120.273 83.5406 121.439 82.9553 122.696C85.4981 124.087 90.184 128.753 91.738 130.334L92.7233 128.519Z" fill="#FF748E"/>
<defs>
<linearGradient id="paint0_linear_148_625" x1="247.172" y1="32.2987" x2="247.172" y2="26.0757" gradientUnits="userSpaceOnUse">
<stop stop-color="#808080" stop-opacity="0.25"/>
<stop offset="0.54" stop-color="#808080" stop-opacity="0.12"/>
<stop offset="1" stop-color="#808080" stop-opacity="0.1"/>
</linearGradient>
<linearGradient id="paint1_linear_148_625" x1="155330" y1="222955" x2="155330" y2="15544.9" gradientUnits="userSpaceOnUse">
<stop stop-color="#808080" stop-opacity="0.25"/>
<stop offset="0.54" stop-color="#808080" stop-opacity="0.12"/>
<stop offset="1" stop-color="#808080" stop-opacity="0.1"/>
</linearGradient>
</defs>
</svg>
