<svg width="311" height="285" viewBox="0 0 311 285" fill="none" xmlns="http://www.w3.org/2000/svg">
<path opacity="0.24" d="M134.849 0.0820613C127.644 -0.223278 120.302 0.242768 113.456 2.86226C105.728 5.80316 98.9097 11.3475 92.8501 17.6739C76.617 34.5801 65.0024 57.4055 47.2282 71.9922C35.8228 81.3559 22.008 87.227 13.0891 99.7781C3.68382 113.036 1.46091 131.26 0.360823 148.482C-0.0937586 155.323 -0.398329 162.335 1.23817 168.919C3.09741 176.418 7.32957 182.718 11.7708 188.493C21.9332 201.711 33.6392 213.159 46.5373 222.492C52.515 226.815 58.761 230.699 64.2341 235.858C77.6943 248.537 86.0541 268.475 101.346 277.807C110.438 283.335 120.925 284.45 131.135 284.846C147.418 285.473 164.138 284.433 179.189 277.079C205.836 264.061 224.738 232.617 252.786 224.673C260.227 222.567 268.06 222.235 275.197 218.978C281.838 215.946 287.525 210.52 292.348 204.343C303.613 189.923 310.627 170.772 310.986 151.177C311.345 131.582 304.876 111.756 292.889 98.171C279.483 82.9844 260.3 76.117 247.658 60.0465C240.526 50.9773 235.63 39.1548 226.747 32.5498C214.337 23.2986 199.19 26.1806 186.589 17.015C171.284 5.89423 152.764 0.848088 134.849 0.0820613Z" fill="#68E1FD" fill-opacity="0.5"/>
<path d="M90.3331 59.4189H55.1997V145.519H90.3331V59.4189Z" fill="#68E1FD"/>
<path d="M115.819 119.262V84.1282H29.7193V119.262H115.819Z" fill="#68E1FD"/>
<path d="M49.4138 181.818H45.1641V260.196H49.4138V181.818Z" fill="#68E1FD"/>
<path d="M230.496 181.818H226.246V260.196H230.496V181.818Z" fill="#68E1FD"/>
<path d="M174.508 163.666H38.2068C34.1564 163.666 30.8729 166.949 30.8729 170.999V171.005C30.8729 175.056 34.1564 178.339 38.2068 178.339H174.508C178.559 178.339 181.842 175.056 181.842 171.005V170.999C181.842 166.949 178.559 163.666 174.508 163.666Z" fill="#68E1FD"/>
<path d="M174.508 163.666H38.2068C34.1564 163.666 30.8729 166.949 30.8729 170.999V171.005C30.8729 175.056 34.1564 178.339 38.2068 178.339H174.508C178.559 178.339 181.842 175.056 181.842 171.005V170.999C181.842 166.949 178.559 163.666 174.508 163.666Z" fill="url(#paint0_linear_148_104)"/>
<path d="M242.074 178.339H28.9423C27.4502 178.339 26.2406 179.549 26.2406 181.041C26.2406 182.533 27.4502 183.743 28.9423 183.743H242.074C243.566 183.743 244.775 182.533 244.775 181.041C244.775 179.549 243.566 178.339 242.074 178.339Z" fill="#68E1FD"/>
<path d="M242.074 178.339H28.9423C27.4502 178.339 26.2406 179.549 26.2406 181.041C26.2406 182.533 27.4502 183.743 28.9423 183.743H242.074C243.566 183.743 244.775 182.533 244.775 181.041C244.775 179.549 243.566 178.339 242.074 178.339Z" fill="url(#paint1_linear_148_104)"/>
<path d="M132.167 69.8131C132.116 70.2763 132.166 70.7451 132.312 71.1875C132.459 71.6299 132.699 72.0356 133.016 72.3773C133.162 72.5492 133.349 72.6826 133.559 72.7658C134.659 73.1244 134.725 70.883 134.402 70.2434C134.079 69.6039 132.328 68.3726 132.167 69.8131Z" fill="url(#paint2_linear_148_104)"/>
<path d="M151.879 68.558C151.928 69.0211 151.878 69.4894 151.731 69.9316C151.585 70.3738 151.346 70.7796 151.03 71.1221C150.883 71.2956 150.693 71.4292 150.481 71.5106C149.387 71.8693 149.321 69.6279 149.638 68.9883C149.955 68.3488 151.718 67.1175 151.879 68.558Z" fill="url(#paint3_linear_148_104)"/>
<path opacity="0.24" d="M169.536 269.442C170.558 268.641 171.12 267.41 171.926 266.382C175.148 262.144 181.257 261.899 186.415 260.59C190.951 259.43 195.144 257.203 198.644 254.093C189.081 252.945 179.38 253.495 169.751 254.033L104.606 257.715C100.951 257.84 97.3111 258.24 93.7161 258.91C92.7418 259.114 91.6839 259.425 91.146 260.261C90.5482 261.212 90.8591 262.539 91.6062 263.393C92.4107 264.199 93.3876 264.812 94.4632 265.186C104.774 269.574 116.178 272.359 127.2 270.339C127.965 270.201 128.832 269.95 129.142 269.239C129.453 268.528 129.011 267.625 129.142 266.848C129.405 265.348 131.372 265.007 132.89 265.019L147.402 265.091C148.255 265.011 149.112 265.186 149.865 265.593C151.353 266.609 151.15 269.078 152.591 270.159C153.31 270.598 154.139 270.822 154.981 270.805C158.801 271.008 166.266 272 169.536 269.442Z" fill="#68E1FD"/>
<path d="M151.724 86.8299C151.724 86.8299 164.873 104.403 170.851 113.087C176.828 121.772 183.223 90.1173 183.223 90.1173L192.655 95.9749C192.655 95.9749 184.933 139.93 167.946 126.996C150.959 114.062 151.724 86.8299 151.724 86.8299Z" fill="#68E1FD"/>
<path d="M151.724 86.8299C151.724 86.8299 164.873 104.403 170.851 113.087C176.828 121.772 183.223 90.1173 183.223 90.1173L192.655 95.9749C192.655 95.9749 184.933 139.93 167.946 126.996C150.959 114.062 151.724 86.8299 151.724 86.8299Z" fill="url(#paint4_linear_148_104)"/>
<path d="M137.014 83.0823C132.101 85.4731 128.377 89.6571 124.797 93.7992C124.145 94.6615 123.657 95.6359 123.357 96.6742C119.292 107.553 119.878 114.605 118.575 123.452C117.523 130.714 115.264 138.107 116.955 145.25C116.955 145.25 117.344 174.478 118.892 179.11L167.151 177.957C167.151 177.957 163.481 130.738 163.164 124.928C161.616 96.8714 155.956 90.6911 151.706 86.8299C147.456 82.9687 137.014 83.0823 137.014 83.0823Z" fill="#68E1FD"/>
<path d="M137.014 83.0823C132.101 85.4731 128.377 89.6571 124.797 93.7992C124.145 94.6615 123.657 95.6359 123.357 96.6742C119.292 107.553 119.878 114.605 118.575 123.452C117.523 130.714 115.264 138.107 116.955 145.25C116.955 145.25 117.344 174.478 118.892 179.11L167.151 177.957C167.151 177.957 163.319 133.039 163.29 127.247C163.164 102.795 157.049 90.8884 151.706 86.8299C147.151 83.3632 137.014 83.0823 137.014 83.0823Z" fill="url(#paint5_linear_148_104)"/>
<path d="M154.479 114.103L161.652 113.858C161.652 113.858 162.662 123.607 160.833 124.187C159.004 124.767 154.653 124.282 154.653 124.282L154.479 114.103Z" fill="white"/>
<path d="M135.705 86.2561C135.705 86.2561 141.3 91.5637 144.39 87.9894C147.48 84.4151 147.092 85.7719 147.092 85.7719L144.97 119.746L135.705 86.2561Z" fill="#606161"/>
<path d="M143.458 51.1466C142.415 49.8718 140.911 49.0599 139.274 48.8872C137.702 48.7199 135.962 49.2698 135.09 50.5967C134.549 51.6174 134.299 52.7669 134.366 53.9199C134.273 54.9921 134.441 56.071 134.856 57.0639C135.37 57.9973 136.205 58.7129 137.205 59.0782C138.367 59.4798 139.617 59.5551 140.818 59.2959C142.019 59.0366 143.127 58.4527 144.019 57.6078C145.836 55.9641 144.826 52.8321 143.458 51.1466Z" fill="#606161"/>
<path d="M143.458 51.1466C142.415 49.8718 140.911 49.0599 139.274 48.8872C137.702 48.7199 135.962 49.2698 135.09 50.5967C134.549 51.6174 134.299 52.7669 134.366 53.9199C134.273 54.9921 134.441 56.071 134.856 57.0639C135.37 57.9973 136.205 58.7129 137.205 59.0782C138.367 59.4798 139.617 59.5551 140.818 59.2959C142.019 59.0366 143.127 58.4527 144.019 57.6078C145.836 55.9641 144.826 52.8321 143.458 51.1466Z" fill="url(#paint6_linear_148_104)"/>
<path d="M137.893 76.083C137.893 76.083 137.827 83.4229 136.153 84.965C134.48 86.5071 142.848 93.7155 146.386 85.6763C146.386 85.6763 144.324 82.1976 145.035 76.346C145.747 70.4945 137.893 76.083 137.893 76.083Z" fill="url(#paint7_linear_148_104)"/>
<path d="M137.636 77.8224V79.4303C137.636 79.4303 141.88 85.5448 143.613 83.4887C145.346 81.4326 144.808 80.9783 144.808 80.9783L145.006 76.3461L137.636 77.8224Z" fill="url(#paint8_linear_148_104)"/>
<path d="M133.834 65.5992C133.834 65.5992 132.639 76.7943 138.616 79.0118C144.593 81.2293 148.179 78.0495 149.811 72.6402C151.443 67.2309 148.945 56.3287 142.573 57.3926C136.201 58.4566 133.834 65.5992 133.834 65.5992Z" fill="url(#paint9_linear_148_104)"/>
<path d="M132.878 69.3588C132.601 68.9736 132.422 68.5262 132.358 68.0558C131.97 65.9538 132.14 63.7868 132.851 61.771C133.562 59.7552 134.79 57.9612 136.411 56.5678C137.064 55.9856 137.826 55.5368 138.652 55.2469C139.481 55.0102 140.345 54.9212 141.204 54.9839C143.908 55.0705 146.514 56.0099 148.652 57.6676C149.707 58.5027 150.579 59.5471 151.211 60.7351C151.844 61.9232 152.224 63.2292 152.328 64.5712C152.397 65.368 152.265 66.1694 151.945 66.9022C151.782 67.2687 151.535 67.5914 151.223 67.8438C150.911 68.0963 150.544 68.2713 150.152 68.3547C148.771 68.5938 148.389 67.3147 147.277 66.4659C145.591 65.1808 145.053 63.2801 141.222 63.6029C134.994 64.1289 134.558 71.409 132.878 69.3588Z" fill="#606161"/>
<path d="M131.36 86.9315C131.36 86.9315 110.512 101.408 109.639 128.723C109.137 144.551 127.015 141.873 127.57 141.466C128.126 141.06 129.889 127.57 129.889 127.57C129.889 127.57 123.518 127.57 122.747 126.41C121.976 125.251 131.36 86.9315 131.36 86.9315Z" fill="#68E1FD"/>
<path d="M131.36 86.9315C131.36 86.9315 110.512 101.408 109.639 128.723C109.137 144.551 127.015 141.873 127.57 141.466C128.126 141.06 129.889 127.57 129.889 127.57C129.889 127.57 123.518 127.57 122.747 126.41C121.976 125.251 131.36 86.9315 131.36 86.9315Z" fill="url(#paint10_linear_148_104)"/>
<path d="M122.771 178.728L122 254.404L122.579 265.019L130.296 265.408L141.88 183.169L151.485 265.551L159.739 265.503L160.803 177.957L122.771 178.728Z" fill="#606161"/>
<path d="M122.771 178.728L122 254.404L122.579 265.019L130.296 265.408L142.077 182.201L151.485 265.551L159.739 265.503L160.803 177.957L122.771 178.728Z" fill="url(#paint11_linear_148_104)"/>
<path d="M185.357 88.4616C185.477 86.592 185.814 84.7426 186.361 82.9507C186.918 81.148 188.084 79.595 189.66 78.5575C190.363 78.0885 191.218 77.9047 192.051 78.0435C193.516 78.3902 194.239 80.0877 194.329 81.5939C194.418 83.1001 194.119 84.6542 194.55 86.1006C194.687 86.5668 194.896 87.0091 195.01 87.4813C195.381 89.0832 194.544 90.7149 193.534 92.012C192.988 92.756 192.312 93.3941 191.537 93.8948C190.726 94.3461 189.805 94.5633 188.877 94.5222C187.95 94.481 187.052 94.1831 186.283 93.6617C184.305 92.2511 185.142 90.5954 185.357 88.4616Z" fill="url(#paint12_linear_148_104)"/>
<path d="M116.208 271.2L129.722 271.008L130.296 265.408L122.579 265.019L116.208 271.2Z" fill="#606161"/>
<path d="M165.579 271.2L152.065 271.008L151.485 265.408L159.207 265.019L165.579 271.2Z" fill="#606161"/>
<path d="M137.199 83.3572C137.199 83.3572 135.012 85.2221 137.199 89.8543C139.387 94.4866 145.179 120.618 145.179 120.618L133.595 101.492L134.886 94.2833L132.418 92.3886C132.418 92.3886 132.418 85.5687 133.709 84.1522C135 82.7356 136.375 82.8253 137.199 83.3572Z" fill="#68E1FD"/>
<path d="M145.257 82.4905C145.257 82.4905 148.735 83.3572 149.315 85.0009C149.895 86.6446 152.304 91.4681 152.304 91.4681L150.762 93.584L153.152 96.3812L145.137 120.612C145.137 120.612 147.199 87.7922 146.362 85.6703C145.526 83.5484 145.257 82.4905 145.257 82.4905Z" fill="#68E1FD"/>
<path d="M137.199 83.3572C137.199 83.3572 135.012 85.2221 137.199 89.8543C139.387 94.4866 145.179 120.618 145.179 120.618L133.595 101.492L134.886 94.2833L132.418 92.3886C132.418 92.3886 132.418 85.5687 133.709 84.1522C135 82.7356 136.375 82.8253 137.199 83.3572Z" fill="url(#paint13_linear_148_104)"/>
<path d="M145.257 82.4905C145.257 82.4905 148.735 83.3572 149.315 85.0009C149.895 86.6446 152.304 91.4681 152.304 91.4681L150.762 93.584L153.152 96.3812L145.137 120.612C145.137 120.612 147.199 87.7922 146.362 85.6703C145.526 83.5484 145.257 82.4905 145.257 82.4905Z" fill="url(#paint14_linear_148_104)"/>
<path d="M143.726 100.003C143.209 99.9675 142.71 99.7977 142.278 99.5105C141.847 99.2234 141.497 98.8289 141.264 98.3657C141.108 98.1027 140.78 97.5887 140.355 96.9133C138.508 94.0024 134.665 87.9476 134.026 85.8018C133.338 83.5186 135.293 82.1678 136.416 81.7733L136.644 82.4248C136.536 82.4606 134.002 83.3811 134.665 85.6046C135.263 87.6488 139.088 93.6617 140.923 96.5487C141.354 97.2301 141.682 97.7441 141.838 98.0131C142.435 98.9873 143.194 99.4595 143.977 99.322C144.76 99.1846 146.548 98.2282 147.641 92.2033C149.19 83.7039 146.613 82.3411 145.759 81.8868L146.081 81.2891C147.038 81.7972 149.955 83.3333 148.317 92.3348C147.193 98.545 145.191 99.8062 144.103 100.003C143.978 100.015 143.852 100.015 143.726 100.003Z" fill="#68E1FD"/>
<path d="M139.865 135.752C138.818 135.743 137.79 135.469 136.877 134.957C135.906 134.464 135.092 133.709 134.528 132.777C133.964 131.846 133.672 130.775 133.685 129.686C133.804 127.51 135.376 125.687 138.114 124.551C147.026 120.834 143.918 99.836 143.888 99.6268L144.563 99.5252C144.701 100.404 147.779 121.258 138.371 125.179C135.896 126.213 134.474 127.827 134.372 129.722C134.375 130.68 134.64 131.619 135.14 132.437C135.639 133.255 136.354 133.92 137.205 134.36C138.182 134.892 139.293 135.128 140.401 135.038C141.51 134.947 142.568 134.535 143.446 133.852C149.967 129.196 157.193 114.414 157.193 112.507H157.88C157.88 114.516 150.678 129.518 143.834 134.414C142.686 135.268 141.296 135.737 139.865 135.752Z" fill="#68E1FD"/>
<path d="M143.726 100.003C143.209 99.9675 142.71 99.7977 142.278 99.5105C141.847 99.2234 141.497 98.8289 141.264 98.3657C141.108 98.1027 140.78 97.5887 140.355 96.9133C138.508 94.0024 134.665 87.9476 134.026 85.8018C133.338 83.5186 135.293 82.1678 136.416 81.7733L136.644 82.4248C136.536 82.4606 134.002 83.3811 134.665 85.6046C135.263 87.6488 139.088 93.6617 140.923 96.5487C141.354 97.2301 141.682 97.7441 141.838 98.0131C142.435 98.9873 143.194 99.4595 143.977 99.322C144.76 99.1846 146.548 98.2282 147.641 92.2033C149.19 83.7039 146.613 82.3411 145.759 81.8868L146.081 81.2891C147.038 81.7972 149.955 83.3333 148.317 92.3348C147.193 98.545 145.191 99.8062 144.103 100.003C143.978 100.015 143.852 100.015 143.726 100.003Z" fill="url(#paint15_linear_148_104)"/>
<path d="M139.865 135.752C138.818 135.743 137.79 135.469 136.877 134.957C135.906 134.464 135.092 133.709 134.528 132.777C133.964 131.846 133.672 130.775 133.685 129.686C133.804 127.51 135.376 125.687 138.114 124.551C147.026 120.834 143.918 99.836 143.888 99.6268L144.563 99.5252C144.701 100.404 147.779 121.258 138.371 125.179C135.896 126.213 134.474 127.827 134.372 129.722C134.375 130.68 134.64 131.619 135.14 132.437C135.639 133.255 136.354 133.92 137.205 134.36C138.182 134.892 139.293 135.128 140.401 135.038C141.51 134.947 142.568 134.535 143.446 133.852C149.967 129.196 157.193 114.414 157.193 112.507H157.88C157.88 114.516 150.678 129.518 143.834 134.414C142.686 135.268 141.296 135.737 139.865 135.752Z" fill="url(#paint16_linear_148_104)"/>
<path d="M137.056 128.144L140.045 118.449C140.288 117.658 140.807 116.981 141.509 116.542C142.21 116.103 143.046 115.931 143.864 116.058L155.621 117.851C156.116 117.929 156.588 118.114 157.004 118.392C157.42 118.671 157.771 119.036 158.032 119.464C158.293 119.891 158.458 120.371 158.515 120.868C158.573 121.366 158.521 121.87 158.364 122.346L150.797 145.202C150.526 146.022 149.956 146.711 149.201 147.13C148.446 147.55 147.561 147.67 146.721 147.468L135.645 144.82C135.185 144.71 134.752 144.506 134.373 144.221C133.995 143.936 133.679 143.576 133.446 143.164C133.213 142.752 133.067 142.296 133.018 141.825C132.968 141.354 133.016 140.878 133.159 140.427L137.056 128.144Z" fill="#68E1FD"/>
<path d="M137.056 128.144L140.045 118.449C140.288 117.658 140.807 116.981 141.509 116.542C142.21 116.103 143.046 115.931 143.864 116.058L155.621 117.851C156.116 117.929 156.588 118.114 157.004 118.392C157.42 118.671 157.771 119.036 158.032 119.464C158.293 119.891 158.458 120.371 158.515 120.868C158.573 121.366 158.521 121.87 158.364 122.346L150.797 145.202C150.526 146.022 149.956 146.711 149.201 147.13C148.446 147.55 147.561 147.67 146.721 147.468L135.645 144.82C135.185 144.71 134.752 144.506 134.373 144.221C133.995 143.936 133.679 143.576 133.446 143.164C133.213 142.752 133.067 142.296 133.018 141.825C132.968 141.354 133.016 140.878 133.159 140.427L137.056 128.144Z" fill="url(#paint17_linear_148_104)"/>
<path d="M137.636 128.723L140.624 119.028C140.867 118.237 141.387 117.56 142.089 117.121C142.79 116.682 143.626 116.511 144.444 116.638L156.201 118.431C156.695 118.509 157.167 118.693 157.584 118.972C158 119.25 158.351 119.616 158.612 120.044C158.873 120.471 159.038 120.95 159.095 121.448C159.153 121.946 159.101 122.45 158.944 122.926L151.377 145.782C151.105 146.601 150.535 147.289 149.78 147.708C149.025 148.127 148.14 148.249 147.301 148.047L136.225 145.399C135.765 145.289 135.332 145.085 134.953 144.801C134.575 144.516 134.259 144.156 134.026 143.744C133.793 143.332 133.647 142.876 133.597 142.405C133.548 141.934 133.596 141.458 133.739 141.006L137.636 128.723Z" fill="#555FD2"/>
<path d="M140.594 127.175C141.405 127.103 142.221 127.209 142.985 127.486C143.367 127.627 143.704 127.868 143.962 128.183C144.219 128.499 144.388 128.877 144.45 129.279C144.527 130.242 143.804 131.072 142.997 131.604C142.19 132.136 141.252 132.435 140.487 133.021C139.542 133.75 138.945 134.814 138.126 135.699C137.159 136.687 135.923 137.369 134.571 137.661C133.22 137.953 131.812 137.842 130.523 137.342C129.616 137.041 128.856 136.41 128.393 135.574C127.93 134.738 127.799 133.758 128.025 132.83C128.156 131.945 128.503 130.2 129.22 129.584C129.937 128.968 131.993 128.741 132.92 128.484C135.418 127.75 137.994 127.311 140.594 127.175Z" fill="url(#paint18_linear_148_104)"/>
<path d="M150.767 69.3588C150.839 69.2899 150.898 69.209 150.941 69.1197C150.964 69.0135 150.978 68.9055 150.983 68.7969C150.998 68.6903 151.051 68.5927 151.132 68.522C151.172 68.4867 151.221 68.4626 151.273 68.4521C151.326 68.4416 151.38 68.4451 151.431 68.4622C151.475 68.483 151.515 68.5129 151.547 68.55C151.579 68.5871 151.602 68.6305 151.616 68.6774C151.642 68.7688 151.656 68.8633 151.658 68.9583C151.695 69.3287 151.64 69.7026 151.497 70.0462C151.357 70.2725 151.181 70.4744 150.977 70.6439C150.943 70.6875 150.9 70.7238 150.852 70.7505C150.804 70.7772 150.751 70.7938 150.696 70.7993C150.623 70.7947 150.552 70.7699 150.493 70.7275C150.462 70.7166 150.437 70.6955 150.421 70.6678C150.415 70.6422 150.415 70.6157 150.421 70.5901C150.373 70.3373 150.373 70.0778 150.421 69.825C150.488 69.6387 150.608 69.4764 150.767 69.3588Z" fill="url(#paint19_linear_148_104)"/>
<path d="M133.422 70.5662C133.347 70.4992 133.286 70.4179 133.243 70.3271C133.22 70.2209 133.206 70.113 133.201 70.0044C133.187 69.8974 133.133 69.7994 133.051 69.7294C133.011 69.6936 132.963 69.6691 132.91 69.6586C132.858 69.6481 132.803 69.6519 132.753 69.6697C132.709 69.6901 132.67 69.72 132.639 69.7572C132.608 69.7944 132.585 69.838 132.573 69.8848C132.541 69.9749 132.527 70.0703 132.531 70.1658C132.493 70.5342 132.549 70.9063 132.693 71.2476C132.829 71.4744 133.003 71.6765 133.207 71.8453C133.279 71.9318 133.382 71.9874 133.494 72.0007C133.566 71.9942 133.636 71.9695 133.697 71.929C133.725 71.9143 133.749 71.8939 133.769 71.8692C133.774 71.8436 133.774 71.8171 133.769 71.7915C133.817 71.5388 133.817 71.2792 133.769 71.0264C133.699 70.8431 133.579 70.6834 133.422 70.5662Z" fill="url(#paint20_linear_148_104)"/>
<path d="M156.404 112.657C156.528 113.409 156.923 114.09 157.516 114.57C157.679 114.737 157.886 114.855 158.113 114.91C158.368 114.932 158.623 114.862 158.831 114.713C159.225 114.468 159.535 114.106 159.717 113.678C159.898 113.25 159.944 112.777 159.847 112.322C159.351 110.505 156.213 110.487 156.404 112.657Z" fill="#68E1FD"/>
<path d="M156.984 111.808C157.073 112.812 158.382 115.394 160.187 114.546C160.734 114.246 161.164 113.771 161.409 113.198C161.654 112.625 161.699 111.986 161.538 111.384C160.905 108.951 156.727 108.927 156.984 111.808Z" fill="#68E1FD"/>
<path d="M156.984 111.808C157.342 115.149 159.901 114.725 160.187 114.546C160.711 114.222 161.121 113.744 161.363 113.178C161.605 112.613 161.666 111.986 161.538 111.384C160.905 108.951 156.673 108.933 156.984 111.808Z" fill="url(#paint21_linear_148_104)"/>
<path d="M157.671 111.993C157.904 114.139 159.548 113.864 159.727 113.751C160.063 113.544 160.328 113.238 160.484 112.876C160.64 112.513 160.681 112.111 160.6 111.725C160.187 110.159 157.474 110.147 157.671 111.993Z" fill="url(#paint22_linear_148_104)"/>
<path d="M239.253 135.938L186.357 161.362C182.224 163.348 180.484 168.308 182.47 172.441C184.456 176.573 189.417 178.313 193.549 176.327L246.446 150.904C250.579 148.918 252.319 143.957 250.333 139.825C248.346 135.692 243.386 133.952 239.253 135.938Z" fill="#68E1FD"/>
<path d="M239.253 135.938L186.357 161.362C182.224 163.348 180.484 168.308 182.47 172.441C184.456 176.573 189.417 178.313 193.549 176.327L246.446 150.904C250.579 148.918 252.319 143.957 250.333 139.825C248.346 135.692 243.386 133.952 239.253 135.938Z" fill="url(#paint23_linear_148_104)"/>
<defs>
<linearGradient id="paint0_linear_148_104" x1="106.136" y1="176.468" x2="106.621" y2="164.496" gradientUnits="userSpaceOnUse">
<stop stop-color="white" stop-opacity="0"/>
<stop offset="0.95" stop-color="white"/>
</linearGradient>
<linearGradient id="paint1_linear_148_104" x1="135.508" y1="196.486" x2="135.508" y2="164.442" gradientUnits="userSpaceOnUse">
<stop offset="0.12" stop-color="#010101" stop-opacity="0"/>
<stop offset="0.95" stop-color="#010101"/>
</linearGradient>
<linearGradient id="paint2_linear_148_104" x1="132.149" y1="70.9607" x2="134.57" y2="70.9607" gradientUnits="userSpaceOnUse">
<stop stop-color="#E5C6D6"/>
<stop offset="0.42" stop-color="#EAD4D0"/>
<stop offset="1" stop-color="#F0E9CB"/>
</linearGradient>
<linearGradient id="paint3_linear_148_104" x1="1470.09" y1="632.062" x2="1460.25" y2="632.062" gradientUnits="userSpaceOnUse">
<stop stop-color="#E5C6D6"/>
<stop offset="0.42" stop-color="#EAD4D0"/>
<stop offset="1" stop-color="#F0E9CB"/>
</linearGradient>
<linearGradient id="paint4_linear_148_104" x1="15446.8" y1="11905.9" x2="15560.9" y2="9454.2" gradientUnits="userSpaceOnUse">
<stop stop-color="white" stop-opacity="0"/>
<stop offset="0.95" stop-color="white"/>
</linearGradient>
<linearGradient id="paint5_linear_148_104" x1="13340.8" y1="25438.3" x2="18370.2" y2="25176.1" gradientUnits="userSpaceOnUse">
<stop stop-color="white" stop-opacity="0"/>
<stop offset="0.95" stop-color="white"/>
</linearGradient>
<linearGradient id="paint6_linear_148_104" x1="138.329" y1="51.3617" x2="140.69" y2="57.6377" gradientUnits="userSpaceOnUse">
<stop stop-color="#010101" stop-opacity="0"/>
<stop offset="0.95" stop-color="#010101"/>
</linearGradient>
<linearGradient id="paint7_linear_148_104" x1="3447.81" y1="2809.34" x2="3630.6" y2="2809.34" gradientUnits="userSpaceOnUse">
<stop stop-color="#E5C6D6"/>
<stop offset="0.42" stop-color="#EAD4D0"/>
<stop offset="1" stop-color="#F0E9CB"/>
</linearGradient>
<linearGradient id="paint8_linear_148_104" x1="2524.63" y1="1438.62" x2="2587.16" y2="1137.48" gradientUnits="userSpaceOnUse">
<stop offset="0.12" stop-color="#010101" stop-opacity="0"/>
<stop offset="0.95" stop-color="#010101"/>
</linearGradient>
<linearGradient id="paint9_linear_148_104" x1="5320.29" y1="3464.5" x2="5778.83" y2="3464.5" gradientUnits="userSpaceOnUse">
<stop stop-color="#E5C6D6"/>
<stop offset="0.42" stop-color="#EAD4D0"/>
<stop offset="1" stop-color="#F0E9CB"/>
</linearGradient>
<linearGradient id="paint10_linear_148_104" x1="98.5337" y1="111.097" x2="128.27" y2="114.57" gradientUnits="userSpaceOnUse">
<stop offset="0.52" stop-color="white" stop-opacity="0.52"/>
<stop offset="0.95" stop-color="white"/>
</linearGradient>
<linearGradient id="paint11_linear_148_104" x1="12519.7" y1="38163.3" x2="16098.5" y2="22167.3" gradientUnits="userSpaceOnUse">
<stop offset="0.12" stop-color="#010101" stop-opacity="0"/>
<stop offset="0.95" stop-color="#010101"/>
</linearGradient>
<linearGradient id="paint12_linear_148_104" x1="4215.47" y1="3081.93" x2="4386.2" y2="3081.93" gradientUnits="userSpaceOnUse">
<stop stop-color="#E5C6D6"/>
<stop offset="0.42" stop-color="#EAD4D0"/>
<stop offset="1" stop-color="#F0E9CB"/>
</linearGradient>
<linearGradient id="paint13_linear_148_104" x1="4110.44" y1="8056.02" x2="4309.4" y2="8033.51" gradientUnits="userSpaceOnUse">
<stop stop-color="white" stop-opacity="0"/>
<stop offset="0.95" stop-color="white"/>
</linearGradient>
<linearGradient id="paint14_linear_148_104" x1="155.424" y1="100.852" x2="146.028" y2="101.498" gradientUnits="userSpaceOnUse">
<stop stop-color="white" stop-opacity="0"/>
<stop offset="0.11" stop-color="white" stop-opacity="0.18"/>
<stop offset="0.29" stop-color="white" stop-opacity="0.42"/>
<stop offset="0.45" stop-color="white" stop-opacity="0.63"/>
<stop offset="0.6" stop-color="white" stop-opacity="0.79"/>
<stop offset="0.74" stop-color="white" stop-opacity="0.9"/>
<stop offset="0.86" stop-color="white" stop-opacity="0.98"/>
<stop offset="0.95" stop-color="white"/>
</linearGradient>
<linearGradient id="paint15_linear_148_104" x1="5176.18" y1="3336.59" x2="3872.06" y2="4516.2" gradientUnits="userSpaceOnUse">
<stop offset="0.12" stop-color="#010101" stop-opacity="0"/>
<stop offset="0.95" stop-color="#010101"/>
</linearGradient>
<linearGradient id="paint16_linear_148_104" x1="8922.06" y1="7207.66" x2="6480.35" y2="9058.23" gradientUnits="userSpaceOnUse">
<stop offset="0.12" stop-color="#010101" stop-opacity="0"/>
<stop offset="0.95" stop-color="#010101"/>
</linearGradient>
<linearGradient id="paint17_linear_148_104" x1="7993.03" y1="7507.38" x2="9840.1" y2="8848.82" gradientUnits="userSpaceOnUse">
<stop offset="0.12" stop-color="#010101" stop-opacity="0"/>
<stop offset="0.95" stop-color="#010101"/>
</linearGradient>
<linearGradient id="paint18_linear_148_104" x1="5148.72" y1="2891.19" x2="5605.02" y2="2891.19" gradientUnits="userSpaceOnUse">
<stop stop-color="#E5C6D6"/>
<stop offset="0.42" stop-color="#EAD4D0"/>
<stop offset="1" stop-color="#F0E9CB"/>
</linearGradient>
<linearGradient id="paint19_linear_148_104" x1="591.504" y1="431.296" x2="580.645" y2="430.068" gradientUnits="userSpaceOnUse">
<stop offset="0.12" stop-color="#010101" stop-opacity="0"/>
<stop offset="0.95" stop-color="#010101"/>
</linearGradient>
<linearGradient id="paint20_linear_148_104" x1="504.124" y1="436.449" x2="514.985" y2="435.218" gradientUnits="userSpaceOnUse">
<stop offset="0.12" stop-color="#010101" stop-opacity="0"/>
<stop offset="0.95" stop-color="#010101"/>
</linearGradient>
<linearGradient id="paint21_linear_148_104" x1="1825.36" y1="1213.89" x2="1763.25" y2="1308.18" gradientUnits="userSpaceOnUse">
<stop offset="0.12" stop-color="#010101" stop-opacity="0"/>
<stop offset="0.95" stop-color="#010101"/>
</linearGradient>
<linearGradient id="paint22_linear_148_104" x1="1225.07" y1="827.871" x2="1199.5" y2="866.756" gradientUnits="userSpaceOnUse">
<stop offset="0.12" stop-color="#010101" stop-opacity="0"/>
<stop offset="0.95" stop-color="#010101"/>
</linearGradient>
<linearGradient id="paint23_linear_148_104" x1="34452.3" y1="5226.12" x2="34402.1" y2="4783.93" gradientUnits="userSpaceOnUse">
<stop stop-color="white" stop-opacity="0"/>
<stop offset="0.95" stop-color="white"/>
</linearGradient>
</defs>
</svg>
