<svg width="24" height="23" viewBox="0 0 24 23" fill="none" xmlns="http://www.w3.org/2000/svg">
<path fill-rule="evenodd" clip-rule="evenodd" d="M21.6334 18.8209H23.0167C23.5597 18.8209 24 19.2611 24 19.8042C24 20.3473 23.5597 20.7875 23.0167 20.7875H21.6334C21.2186 22.0714 20.0136 23 18.5917 23C17.1698 23 15.9647 22.0714 15.55 20.7875L1.38343 20.7875C0.840334 20.7875 0.400097 20.3473 0.400097 19.8042C0.400097 19.2611 0.840334 18.8209 1.38343 18.8209L15.55 18.8209C15.9647 17.537 17.1698 16.6084 18.5917 16.6084C20.0136 16.6084 21.2186 17.537 21.6334 18.8209ZM20.3125 19.8042C20.3125 20.7546 19.5421 21.525 18.5917 21.525C17.6413 21.525 16.8709 20.7546 16.8709 19.8042C16.8709 18.8538 17.6413 18.0834 18.5917 18.0834C19.5421 18.0834 20.3125 18.8538 20.3125 19.8042Z" fill="white"/>
<path fill-rule="evenodd" clip-rule="evenodd" d="M23.0167 10.9542L8.81169 10.9542C8.39692 9.67038 7.19195 8.74172 5.76996 8.74172C4.34806 8.74172 3.1431 9.67038 2.72833 10.9542H1.38343C0.840334 10.9542 0.400097 11.3944 0.400097 11.9375C0.400097 12.4806 0.840334 12.9209 1.38343 12.9209H2.72833C3.1431 14.2047 4.34806 15.1334 5.76996 15.1334C7.19195 15.1334 8.39692 14.2047 8.81169 12.9209L23.0167 12.9209C23.5597 12.9209 24 12.4806 24 11.9375C24 11.3944 23.5597 10.9542 23.0167 10.9542ZM5.76996 13.6584C6.72035 13.6584 7.49079 12.8879 7.49079 11.9375C7.49079 10.9872 6.72035 10.2167 5.76996 10.2167C4.81957 10.2167 4.04913 10.9872 4.04913 11.9375C4.04913 12.8879 4.81957 13.6584 5.76996 13.6584Z" fill="white"/>
<path fill-rule="evenodd" clip-rule="evenodd" d="M15.7334 3.08757L23.0167 3.08757C23.5597 3.08757 24 3.52781 24 4.0709C24 4.614 23.5597 5.05423 23.0167 5.05423L15.7334 5.05423C15.3187 6.33807 14.1136 7.26672 12.6917 7.26672C11.2698 7.26672 10.0647 6.33807 9.64998 5.05423L1.38343 5.05423C0.840334 5.05423 0.400097 4.614 0.400097 4.0709C0.400097 3.52781 0.840334 3.08757 1.38343 3.08757L9.64998 3.08757C10.0647 1.80374 11.2698 0.875084 12.6917 0.875084C14.1136 0.875084 15.3187 1.80374 15.7334 3.08757ZM14.4125 4.0709C14.4125 5.02129 13.6421 5.79173 12.6917 5.79173C11.7413 5.79173 10.9709 5.02129 10.9709 4.0709C10.9709 3.12052 11.7413 2.35008 12.6917 2.35008C13.6421 2.35008 14.4125 3.12052 14.4125 4.0709Z" fill="white"/>
</svg>
